<?xml version="1.0" standalone="no"?>
<!DOCTYPE svg PUBLIC "-//W3C//DTD SVG 20010904//EN"
 "http://www.w3.org/TR/2001/REC-SVG-20010904/DTD/svg10.dtd">
<svg version="1.0" xmlns="http://www.w3.org/2000/svg"
 width="1129.000000pt" height="1129.000000pt" viewBox="0 0 1129.000000 1129.000000"
 preserveAspectRatio="xMidYMid meet">
<metadata>
Created by potrace 1.14, written by Peter Selinger 2001-2017
</metadata>
<g transform="translate(0.000000,1129.000000) scale(0.100000,-0.100000)"
fill="#000000" stroke="none">
<path d="M5612 11239 c-32 -59 -125 -179 -139 -179 -7 0 -36 12 -64 26 -27 15
-52 24 -55 21 -3 -3 1 -18 9 -34 20 -39 30 -110 16 -118 -6 -4 -25 -7 -44 -7
l-33 0 15 -36 c8 -21 23 -44 34 -54 27 -23 24 -42 -11 -55 -18 -7 -30 -18 -30
-29 0 -9 30 -47 66 -83 36 -36 68 -78 71 -92 4 -23 1 -27 -27 -32 -46 -10 -33
-27 36 -49 58 -19 101 -53 136 -108 32 -52 35 -170 3 -170 -7 0 -60 46 -116
103 -76 74 -126 114 -183 145 -103 57 -256 123 -267 116 -5 -3 -9 -18 -9 -35
0 -27 -2 -29 -38 -27 -22 1 -55 -8 -78 -19 -21 -12 -54 -27 -71 -33 -25 -9
-33 -19 -33 -36 0 -17 -8 -28 -25 -34 -22 -8 -24 -12 -13 -29 10 -17 9 -23 -6
-40 -11 -12 -28 -21 -38 -21 -11 0 -29 -5 -40 -11 -20 -11 -20 -12 10 -25 18
-7 32 -19 32 -27 0 -8 -22 -35 -50 -60 -55 -51 -62 -67 -27 -67 29 0 40 -9 55
-43 11 -27 13 -27 40 -13 28 15 29 14 81 -44 60 -69 112 -90 218 -90 54 0 75
6 143 40 89 45 136 95 126 132 -4 13 -25 38 -47 56 -35 27 -49 32 -94 32 -29
0 -60 -3 -69 -6 -25 -10 -20 -75 9 -118 14 -20 25 -43 25 -50 0 -19 -131 -31
-162 -15 -42 22 -118 94 -118 110 0 62 103 201 160 217 14 4 79 7 145 7 237 0
282 -28 370 -232 38 -87 35 -94 -60 -135 -24 -11 -31 -20 -33 -48 -3 -32 1
-38 33 -53 45 -21 46 -48 3 -84 -18 -16 -48 -43 -68 -62 -54 -53 -634 -438
-662 -440 -4 -1 -16 16 -27 38 -25 48 -75 91 -107 91 -28 0 -30 -15 -9 -56 8
-16 15 -46 15 -67 0 -34 -8 -46 -84 -121 -46 -46 -95 -92 -109 -101 -30 -19
-63 -13 -72 13 -8 28 -108 72 -162 72 -44 0 -45 -1 -30 -18 25 -27 23 -156 -2
-197 -28 -46 -71 -85 -123 -111 -62 -31 -90 -30 -130 4 -50 43 -81 62 -100 62
-15 0 -18 -9 -18 -62 0 -38 -7 -78 -18 -100 -23 -50 -159 -188 -185 -188 -11
0 -47 26 -81 58 -55 53 -66 59 -115 65 -30 4 -57 5 -59 2 -2 -2 5 -16 17 -31
32 -41 29 -131 -5 -187 -33 -53 -104 -127 -121 -127 -8 0 -33 20 -58 45 -74
77 -173 111 -242 84 -26 -10 -27 -12 -9 -23 11 -6 36 -25 55 -43 35 -30 36
-33 33 -95 -5 -104 -27 -177 -64 -216 -35 -36 -33 -37 27 -16 25 9 38 -16 39
-74 l1 -61 27 17 c28 18 268 222 268 228 0 2 -25 -12 -55 -31 -30 -19 -57 -35
-60 -35 -12 0 -3 34 24 88 35 69 44 77 94 86 29 5 39 3 43 -9 7 -18 -14 -75
-27 -75 -5 0 -9 -4 -9 -10 0 -11 65 25 100 56 14 12 40 29 58 38 30 15 45 46
22 46 -19 0 -10 42 20 85 40 59 105 105 147 105 41 0 53 -23 28 -50 -10 -11
-15 -20 -10 -20 14 0 171 99 190 120 10 11 34 30 52 42 23 13 32 26 28 36 -3
8 0 41 6 72 10 52 14 59 40 64 30 6 79 -7 79 -21 0 -5 4 -14 9 -22 7 -11 24
-3 82 37 41 28 100 74 131 102 52 46 57 55 60 98 l3 47 44 3 c24 2 48 -1 54
-7 14 -14 56 4 97 44 19 18 67 52 105 75 62 38 95 61 197 139 14 12 31 21 36
21 6 0 33 17 61 38 28 21 78 54 112 73 34 19 85 53 115 77 30 23 85 64 123 90
38 26 118 94 179 152 60 58 125 113 145 123 34 19 35 19 76 -7 23 -15 87 -70
142 -124 55 -53 132 -118 170 -144 38 -26 93 -67 123 -90 30 -24 81 -58 115
-77 34 -19 84 -52 112 -73 28 -21 55 -38 61 -38 5 0 22 -9 36 -21 102 -78 135
-101 197 -139 39 -23 86 -57 105 -75 41 -40 83 -58 97 -44 6 6 30 9 54 7 l44
-3 3 -47 c3 -43 8 -52 60 -98 31 -28 90 -74 131 -102 58 -40 75 -48 82 -37 5
8 9 17 9 22 0 14 49 27 79 21 26 -5 30 -12 40 -64 6 -31 9 -64 6 -72 -4 -10 5
-23 28 -36 18 -12 42 -31 52 -42 19 -21 176 -120 190 -120 5 0 0 9 -10 20 -25
27 -13 50 28 50 42 0 107 -46 147 -105 30 -43 39 -85 20 -85 -23 0 -8 -31 23
-46 17 -9 43 -26 57 -38 35 -31 100 -67 100 -56 0 6 -4 10 -9 10 -13 0 -34 57
-27 75 4 12 14 14 43 9 50 -9 59 -17 94 -86 27 -54 36 -88 24 -88 -3 0 -30 16
-60 35 -30 19 -55 33 -55 31 0 -6 240 -210 268 -228 l27 -17 1 61 c2 78 11 85
84 60 8 -3 0 11 -18 30 -38 40 -60 118 -63 219 -2 60 -1 64 33 93 19 17 43 36
54 42 18 11 17 13 -9 23 -69 27 -161 -5 -240 -83 -26 -25 -53 -46 -61 -46 -19
0 -102 94 -127 142 -27 52 -26 137 2 172 12 15 19 29 16 32 -2 3 -29 2 -58 -2
-48 -6 -61 -14 -115 -66 -33 -32 -69 -58 -80 -58 -26 0 -169 146 -189 192 -8
21 -15 65 -15 98 0 51 -3 60 -18 60 -19 0 -50 -19 -100 -62 -18 -15 -44 -28
-58 -28 -61 0 -179 90 -204 156 -17 43 -12 155 7 176 15 17 14 18 -30 18 -54
0 -154 -44 -162 -72 -9 -26 -42 -32 -72 -13 -14 9 -63 55 -109 101 -76 76 -84
87 -84 121 1 21 7 49 15 63 22 39 19 60 -9 60 -32 0 -82 -43 -107 -91 -11 -22
-22 -39 -25 -39 -4 0 -123 71 -208 125 -17 11 -98 65 -179 120 -82 55 -166
112 -188 126 -21 15 -58 44 -82 65 -24 22 -57 51 -75 67 -42 36 -41 63 3 84
30 14 35 22 35 50 0 31 -5 35 -57 61 -70 33 -74 47 -38 127 14 32 23 60 20 63
-2 3 5 16 15 30 11 13 20 31 20 38 0 8 5 14 12 14 7 0 26 13 43 30 38 37 95
51 232 57 134 6 203 -8 253 -54 22 -19 44 -51 51 -71 6 -20 15 -41 19 -47 24
-33 18 -58 -23 -102 -57 -63 -92 -76 -178 -67 -41 4 -69 11 -69 18 0 6 12 29
25 51 29 47 34 110 9 119 -9 3 -39 6 -67 6 -47 0 -53 -3 -94 -45 -25 -27 -43
-55 -43 -68 0 -32 42 -68 127 -111 60 -30 83 -36 136 -36 99 0 157 22 206 78
23 26 47 53 52 60 8 9 16 9 40 -3 30 -16 30 -16 44 20 13 29 20 35 45 35 47 0
41 14 -38 83 -39 33 -42 64 -7 73 14 3 25 10 25 14 0 11 -68 22 -92 14 -19 -6
-20 -4 -14 39 5 35 4 47 -8 54 -8 4 -16 21 -18 37 -2 24 -10 31 -46 41 -23 7
-54 20 -67 29 -13 9 -45 16 -69 16 -45 0 -45 0 -40 29 3 16 2 31 -3 34 -12 7
-160 -56 -263 -112 -51 -27 -106 -71 -172 -135 -54 -52 -98 -100 -98 -106 0
-5 -11 -10 -24 -10 -58 0 -35 141 36 216 16 17 58 44 93 60 36 15 65 31 65 35
0 4 -14 12 -30 18 -26 9 -30 14 -24 35 3 13 35 53 70 89 73 73 82 104 34 114
-21 4 -30 11 -30 24 0 11 5 19 10 19 13 0 50 60 50 82 0 12 -10 18 -37 20 -38
3 -38 3 -35 43 2 22 10 55 18 74 8 19 12 36 10 38 -2 3 -29 -7 -59 -21 -29
-14 -58 -26 -63 -26 -13 0 -93 104 -124 159 -31 57 -54 63 -78 20z m181 -489
c34 -36 37 -44 37 -95 0 -71 -12 -95 -48 -95 -21 0 -38 12 -65 45 -52 61 -85
62 -141 1 -75 -80 -106 -68 -106 40 0 50 4 63 35 103 l36 46 107 -3 107 -3 38
-39z"/>
<path d="M5533 9714 c-48 -42 -127 -110 -176 -152 -48 -42 -104 -88 -125 -102
-20 -14 -89 -64 -152 -111 -63 -47 -149 -109 -190 -138 -41 -29 -95 -68 -120
-87 -96 -72 -118 -87 -201 -137 -48 -29 -131 -84 -185 -123 -55 -38 -121 -83
-149 -99 -52 -30 -202 -142 -343 -257 -46 -38 -98 -76 -115 -85 -18 -8 -53
-34 -79 -57 -61 -54 -86 -72 -188 -136 -73 -47 -204 -154 -290 -238 -14 -13
-64 -51 -112 -84 -128 -88 -366 -339 -474 -502 -19 -28 -65 -91 -103 -139 -37
-49 -74 -100 -82 -115 -7 -15 -28 -45 -45 -67 -52 -67 -108 -156 -146 -235
-54 -111 -98 -208 -98 -216 0 -12 -53 -128 -70 -154 -10 -14 -20 -36 -23 -50
-3 -14 -15 -51 -26 -83 -22 -58 -30 -129 -51 -446 -7 -104 -7 -156 1 -185 11
-40 21 -84 53 -249 20 -101 54 -224 74 -262 8 -16 23 -55 33 -85 74 -229 101
-290 178 -397 17 -23 41 -66 55 -96 38 -87 258 -315 426 -442 29 -22 85 -68
123 -103 39 -35 93 -78 121 -96 28 -18 62 -45 75 -60 14 -14 30 -26 36 -26 6
0 24 -13 40 -30 15 -16 44 -35 64 -41 20 -7 56 -26 81 -43 25 -17 70 -43 100
-59 94 -48 114 -59 131 -74 26 -22 169 -93 188 -93 9 0 32 -9 52 -19 19 -10
64 -28 100 -39 112 -36 240 -82 278 -101 73 -37 273 -112 349 -130 42 -10 90
-24 106 -30 33 -13 246 -56 326 -66 30 -3 73 -13 95 -20 135 -47 1005 -47
1140 0 22 7 65 17 95 20 80 10 293 53 326 66 16 6 64 20 106 30 76 18 276 93
349 130 38 19 166 65 278 101 36 11 81 29 100 39 20 10 43 19 52 19 19 0 162
71 188 93 17 15 37 26 131 74 30 16 75 42 100 59 25 17 61 36 81 43 20 6 49
25 64 41 16 17 34 30 40 30 6 0 22 12 36 26 13 15 47 42 75 60 28 18 83 61
121 96 39 35 91 79 117 98 160 119 394 361 432 447 14 30 38 73 55 96 77 107
104 168 178 397 10 30 25 69 33 85 20 38 54 161 74 262 32 165 42 209 53 249
8 29 8 81 1 185 -21 317 -29 388 -51 446 -11 32 -23 69 -26 83 -3 14 -13 36
-23 50 -17 26 -70 142 -70 154 0 8 -44 105 -98 216 -38 79 -94 168 -146 235
-17 22 -38 52 -45 67 -8 15 -45 66 -82 115 -38 48 -84 111 -103 139 -108 163
-346 414 -474 502 -48 33 -98 71 -112 84 -86 84 -217 191 -290 238 -102 64
-127 82 -188 136 -26 23 -61 49 -79 57 -17 9 -69 47 -115 85 -141 115 -291
227 -343 257 -27 16 -94 61 -149 99 -54 39 -137 94 -185 123 -83 50 -105 65
-201 137 -25 19 -79 58 -120 87 -41 29 -127 91 -190 138 -63 47 -132 97 -152
111 -21 14 -77 60 -125 102 -238 206 -265 228 -288 228 -15 0 -56 -28 -112
-76z m170 -180 c99 -82 138 -136 147 -198 l5 -41 76 3 c113 5 180 -33 194
-110 7 -36 6 -37 -33 -47 -57 -16 -112 -79 -112 -129 0 -25 7 -45 18 -55 19
-18 46 -13 117 19 27 12 38 11 115 -17 136 -49 142 -49 176 5 16 25 36 45 45
46 22 0 69 -93 69 -136 0 -21 -8 -40 -22 -54 -21 -19 -26 -21 -58 -24 -8 -1
-14 -7 -12 -14 1 -7 -4 -27 -11 -45 -8 -17 -17 -49 -21 -70 -5 -25 -16 -43
-34 -54 -15 -9 -42 -30 -61 -46 -41 -35 -80 -52 -138 -61 -42 -6 -43 -5 -43
21 0 15 11 43 24 62 13 20 27 54 31 77 6 37 3 43 -25 67 -34 29 -93 49 -118
40 -9 -4 -29 -15 -44 -25 -33 -23 -37 -64 -11 -109 9 -15 14 -31 11 -35 -9 -9
-73 16 -102 40 -22 19 -24 25 -17 63 7 37 17 56 56 109 15 21 -7 67 -40 83
-17 7 -41 19 -55 25 -15 7 -30 26 -38 50 -7 21 -21 51 -33 67 -20 28 -22 29
-114 29 -92 0 -94 -1 -114 -29 -12 -16 -26 -46 -33 -67 -9 -25 -23 -43 -40
-51 -16 -7 -40 -19 -55 -26 -31 -14 -53 -61 -38 -81 39 -53 49 -72 56 -109 7
-38 5 -44 -17 -63 -29 -24 -93 -49 -102 -40 -3 4 2 20 11 35 26 45 22 86 -10
109 -16 10 -36 21 -45 25 -25 9 -84 -11 -118 -40 -28 -24 -31 -30 -25 -67 4
-23 18 -57 31 -77 13 -19 24 -47 24 -62 0 -26 -1 -27 -42 -21 -59 9 -98 26
-139 61 -19 16 -46 37 -61 46 -18 11 -29 29 -34 54 -4 21 -13 53 -21 70 -7 18
-12 38 -11 45 2 7 -4 13 -12 14 -32 3 -37 5 -58 24 -14 14 -22 33 -22 54 0 43
47 136 69 136 9 -1 29 -21 45 -46 34 -54 40 -54 176 -5 77 28 88 29 115 17 71
-32 98 -37 117 -19 11 10 18 30 18 55 0 50 -55 113 -112 129 -39 10 -40 11
-33 47 14 77 81 115 194 110 l76 -3 5 41 c9 64 61 133 153 202 34 25 77 23
110 -4z m-1150 -881 c20 -31 35 -43 52 -43 51 0 129 -45 178 -103 27 -32 53
-54 61 -51 7 3 36 -4 65 -16 28 -11 63 -20 77 -20 14 0 38 -7 52 -14 59 -32
128 -60 145 -58 25 3 122 66 187 122 30 26 65 52 78 59 12 6 46 32 75 56 28
25 59 51 68 58 8 7 33 13 54 13 21 0 46 -6 55 -13 8 -7 39 -33 67 -58 29 -24
63 -50 75 -56 13 -7 48 -33 78 -59 65 -56 162 -119 187 -122 17 -2 86 26 145
58 14 7 38 14 52 14 14 0 49 9 77 20 29 12 58 19 65 16 8 -3 34 19 61 51 49
58 127 103 178 103 17 0 32 12 52 43 34 50 60 56 99 24 16 -13 97 -58 179
-101 83 -43 159 -86 171 -97 11 -10 25 -19 32 -19 24 0 129 -110 146 -153 17
-46 20 -48 138 -97 36 -16 89 -46 116 -68 48 -38 53 -39 144 -45 84 -5 99 -9
140 -36 58 -39 99 -94 178 -240 l25 -46 83 1 c54 1 82 -3 82 -10 0 -6 -25 -30
-56 -54 -63 -49 -105 -122 -84 -147 13 -16 7 -20 -35 -27 -36 -6 -29 -35 10
-48 34 -11 38 -10 52 10 14 20 21 21 71 15 32 -4 68 -16 84 -28 24 -18 43 -22
115 -22 85 0 87 0 105 -30 10 -16 18 -34 18 -38 0 -4 -20 -30 -45 -56 l-45
-48 45 -45 c46 -46 53 -69 46 -148 -3 -28 -70 -139 -114 -186 -40 -44 -126
-84 -179 -84 -49 0 -124 41 -134 73 -10 32 -6 104 8 126 18 29 24 27 32 -11 9
-45 33 -68 72 -68 26 0 41 9 71 41 21 22 38 45 37 50 -1 5 -2 29 -2 54 -2 41
-8 51 -65 109 -56 57 -69 65 -122 76 -91 20 -94 24 -47 54 23 14 46 26 52 26
5 0 10 19 9 43 0 38 -1 40 -11 17 -20 -49 -24 -53 -68 -66 -25 -8 -92 -19
-150 -25 -86 -9 -117 -18 -174 -46 -78 -39 -79 -33 19 -106 l60 -45 37 34 c30
26 47 34 77 34 74 0 85 -17 57 -85 -12 -27 -21 -35 -41 -35 -14 0 -28 -6 -31
-14 -7 -18 17 -75 54 -129 16 -23 45 -67 65 -97 55 -86 66 -93 131 -85 81 10
254 -17 354 -56 13 -5 40 -9 61 -9 32 0 45 6 70 35 21 25 31 46 31 69 0 37
-15 54 -78 85 -24 12 -42 27 -39 34 11 35 156 95 201 83 29 -7 100 -76 122
-119 9 -17 15 -60 16 -115 2 -83 0 -90 -34 -150 l-36 -64 26 -46 c14 -26 33
-56 42 -67 40 -48 100 -167 125 -245 31 -100 49 -275 42 -405 -5 -92 -38 -216
-71 -267 -10 -15 -17 -50 -19 -85 -2 -56 1 -63 36 -108 20 -27 37 -54 37 -61
0 -22 -103 -29 -159 -10 -60 19 -71 20 -71 3 0 -18 -28 -43 -59 -52 -14 -4
-47 -25 -74 -46 -27 -22 -56 -39 -65 -39 -34 1 -61 35 -64 81 l-3 44 -105 7
c-217 14 -291 50 -289 141 2 108 14 157 47 190 28 27 41 33 94 37 40 3 64 10
69 20 11 22 42 204 37 225 -2 16 -23 22 -121 38 -66 10 -125 16 -134 13 -9 -4
-13 -16 -11 -33 3 -25 7 -28 35 -25 30 3 33 0 43 -39 21 -78 -16 -112 -99 -89
-26 7 -41 17 -41 26 0 11 -8 7 -27 -13 -16 -16 -50 -42 -76 -58 -40 -23 -47
-31 -42 -49 20 -66 17 -103 -15 -179 -37 -90 -130 -247 -177 -300 -19 -21 -31
-42 -28 -47 8 -13 156 -13 189 0 25 9 26 13 26 80 0 85 9 105 51 114 38 7 74
-12 84 -46 14 -45 45 -68 92 -68 60 0 83 -14 83 -50 0 -21 -9 -35 -32 -52 -29
-20 -46 -23 -133 -25 -55 -1 -158 -5 -230 -9 -123 -7 -132 -8 -165 -35 -19
-16 -39 -29 -45 -29 -5 0 -23 -11 -40 -24 -26 -21 -30 -31 -30 -73 0 -64 -20
-109 -55 -123 -26 -11 -33 -9 -65 16 -32 24 -36 32 -32 60 l6 33 -94 -3 c-86
-2 -96 -5 -146 -36 -30 -18 -72 -48 -94 -65 -69 -53 -91 -64 -152 -73 -98 -16
-199 -5 -278 31 -95 42 -107 53 -99 93 8 44 -14 142 -37 165 -15 15 -34 19
-99 19 -93 0 -123 -11 -151 -57 -21 -33 -21 -34 -3 -55 53 -58 255 -191 311
-204 16 -4 39 -13 52 -21 13 -9 47 -21 75 -28 28 -8 71 -21 96 -30 43 -16 369
-67 381 -59 13 8 18 110 7 142 -16 43 -4 51 61 42 55 -7 121 -50 121 -79 0 -9
6 -25 13 -35 12 -17 16 -17 73 7 32 14 79 30 104 37 24 7 67 23 93 37 47 23
50 23 68 7 35 -32 19 -102 -34 -146 l-32 -27 40 -1 c45 0 143 24 157 38 5 5
12 85 14 178 3 116 9 171 17 176 7 5 32 6 57 3 25 -4 96 -9 158 -13 l113 -7
35 -45 c33 -41 35 -49 30 -90 -8 -60 -41 -90 -100 -90 -57 0 -81 25 -72 74 5
28 12 36 36 41 20 4 30 13 30 24 0 14 -11 20 -46 25 -84 11 -97 8 -143 -36
l-43 -42 5 -59 c9 -103 50 -132 197 -144 68 -5 81 -3 126 20 27 14 69 46 92
71 l42 46 0 82 0 82 -81 80 c-80 81 -80 81 -65 108 18 30 21 80 6 109 -13 23
-16 23 62 3 99 -24 115 -32 121 -64 5 -23 12 -29 44 -33 21 -3 71 -17 111 -33
l74 -27 67 21 c37 12 73 22 79 22 13 0 17 -87 6 -127 -7 -26 -99 -83 -134 -83
-19 0 -21 -4 -15 -22 19 -60 16 -86 -14 -152 -21 -44 -31 -80 -30 -104 4 -56
-2 -60 -70 -49 -57 9 -61 8 -88 -16 -138 -126 -165 -147 -187 -147 -24 0 -42
28 -48 78 -3 21 -8 23 -88 26 -62 3 -108 12 -170 34 -84 31 -120 30 -120 -2 0
-21 61 -128 102 -177 60 -73 105 -82 226 -44 31 10 30 -24 -1 -53 -31 -30
-139 -72 -182 -72 -25 0 -38 -5 -42 -18 -3 -9 -39 -54 -80 -99 -57 -63 -89
-89 -141 -115 l-67 -33 -149 2 c-135 2 -153 5 -205 28 -31 14 -73 38 -93 52
-37 25 -38 28 -38 84 0 32 5 61 10 64 6 3 10 20 10 37 0 83 192 166 284 123
42 -20 56 -47 56 -109 0 -64 -15 -78 -80 -74 l-55 3 2 63 1 62 -32 0 c-35 0
-76 -24 -76 -44 0 -8 -7 -16 -15 -20 -25 -9 -20 -96 8 -137 28 -43 111 -78
183 -79 55 0 114 31 166 87 34 36 78 141 78 187 0 66 -56 163 -110 191 -75 39
-330 -7 -424 -76 -50 -36 -57 -36 -84 1 -12 16 -37 33 -55 38 -17 5 -31 13
-30 18 1 5 4 21 8 35 6 24 2 28 -47 52 -29 14 -84 34 -123 45 -270 77 -364
115 -519 212 -81 51 -95 52 -96 7 0 -32 57 -103 125 -156 36 -28 65 -58 65
-67 0 -36 -74 -93 -167 -129 -51 -19 -98 -35 -104 -35 -22 0 -99 -55 -105 -75
-7 -22 -13 -17 131 -111 55 -36 115 -83 133 -105 19 -21 38 -39 43 -39 5 0 29
18 51 40 38 36 47 40 94 40 33 0 54 -5 57 -12 7 -24 -6 -49 -29 -59 -23 -8
-24 -13 -24 -93 0 -106 9 -117 72 -77 25 16 86 68 137 117 107 104 115 124 85
227 l-18 64 -62 16 c-67 18 -179 23 -188 8 -3 -5 -22 -12 -42 -15 -19 -4 -50
-16 -67 -27 -35 -21 -77 -25 -77 -8 0 6 9 31 20 57 21 49 82 102 117 102 30 0
40 12 63 70 31 79 38 84 85 60 22 -11 46 -20 54 -20 18 0 161 -68 184 -88 16
-14 16 -17 1 -39 -20 -31 -16 -35 27 -23 62 18 93 12 137 -26 75 -64 57 -102
-113 -242 -49 -40 -146 -126 -214 -190 -131 -123 -142 -133 -194 -196 -29 -34
-36 -37 -55 -27 -25 13 -128 15 -136 2 -4 -5 2 -7 11 -5 10 2 40 1 67 -4 49
-7 50 -8 67 -57 17 -49 18 -50 60 -53 37 -3 41 -1 30 12 -9 11 -10 20 -1 35
11 21 117 76 245 127 95 37 155 80 195 137 18 26 36 47 39 47 4 0 18 -11 31
-25 12 -13 39 -30 59 -36 20 -6 45 -17 56 -24 36 -22 188 -50 275 -50 78 0 85
-2 85 -20 0 -14 -16 -28 -55 -47 -106 -52 -335 -138 -378 -142 -29 -2 -48 -10
-57 -23 -8 -11 -29 -26 -47 -33 -18 -6 -58 -23 -88 -36 -50 -21 -203 -54 -251
-54 -15 0 -19 8 -19 38 0 27 -7 44 -22 59 -39 35 -52 37 -28 5 19 -26 31 -89
18 -96 -46 -26 -242 -87 -323 -101 -143 -25 -307 -46 -320 -41 -13 4 -14 10
-5 26 11 21 79 60 105 60 28 0 102 79 150 162 27 46 57 93 68 105 l20 23 -25
0 c-21 0 -29 7 -38 34 -11 34 -11 34 -88 41 -123 10 -135 16 -271 143 -37 34
-75 62 -83 62 -9 0 -31 -20 -49 -45 -34 -45 -66 -62 -94 -51 -27 10 -3 86 47
148 l22 28 -25 26 c-13 15 -41 38 -63 51 -38 25 -39 25 -73 6 -19 -10 -48 -33
-65 -50 l-32 -33 22 -27 c50 -63 74 -139 47 -149 -28 -11 -60 6 -94 51 -18 25
-40 45 -49 45 -8 0 -46 -28 -83 -62 -136 -127 -148 -133 -271 -143 -77 -7 -77
-7 -88 -41 -9 -27 -17 -34 -38 -34 l-25 0 20 -23 c11 -12 41 -59 68 -105 48
-83 122 -162 150 -162 26 0 94 -39 105 -60 9 -16 8 -22 -5 -26 -13 -5 -177 16
-320 41 -81 14 -277 75 -323 101 -13 7 -1 70 18 96 24 32 11 30 -27 -5 -16
-15 -23 -32 -23 -59 0 -30 -4 -38 -19 -38 -48 0 -201 33 -251 54 -30 13 -70
30 -88 36 -18 7 -39 22 -47 33 -9 13 -28 21 -57 23 -43 4 -272 90 -378 142
-39 19 -55 33 -55 47 0 18 7 20 85 20 87 0 239 28 275 50 11 7 36 18 56 24 20
6 47 23 59 36 13 14 27 25 31 25 3 0 21 -21 39 -47 40 -57 100 -100 195 -137
128 -51 234 -106 245 -127 9 -15 8 -24 -1 -35 -11 -13 -7 -15 30 -12 42 3 43
4 60 53 17 49 18 50 67 57 27 5 57 6 67 4 9 -2 15 0 11 5 -8 13 -111 11 -136
-2 -19 -10 -26 -7 -55 27 -52 63 -63 73 -194 196 -68 64 -164 150 -214 190
-170 140 -188 178 -113 242 44 38 75 44 137 26 43 -12 47 -8 27 23 -15 22 -15
25 1 39 23 20 166 88 184 88 8 0 32 9 54 20 47 24 54 19 85 -60 23 -58 33 -70
63 -70 35 0 96 -53 117 -102 11 -26 20 -51 20 -57 0 -17 -42 -13 -77 8 -17 11
-48 23 -67 27 -20 3 -39 10 -42 15 -9 15 -121 10 -188 -8 l-62 -16 -18 -64
c-30 -103 -22 -123 85 -227 51 -49 112 -101 137 -117 63 -40 72 -29 72 77 0
80 -1 85 -24 93 -23 10 -36 35 -29 59 3 7 24 12 57 12 47 0 56 -4 94 -40 22
-22 46 -40 51 -40 5 0 24 18 43 39 18 22 78 69 133 105 144 94 138 89 131 111
-6 20 -83 75 -105 75 -6 0 -53 16 -104 35 -93 36 -167 93 -167 129 0 9 29 39
65 67 68 53 125 124 125 156 -1 45 -15 44 -96 -7 -155 -97 -249 -135 -519
-212 -38 -11 -94 -31 -123 -45 -49 -24 -53 -28 -47 -52 4 -14 7 -30 8 -35 1
-5 -13 -13 -30 -18 -18 -5 -43 -22 -55 -38 -27 -37 -34 -37 -84 -1 -94 69
-349 115 -424 76 -54 -28 -110 -125 -110 -191 0 -46 44 -151 78 -187 52 -56
111 -87 166 -87 72 1 155 36 183 79 28 41 33 128 8 137 -8 4 -15 12 -15 20 0
20 -41 44 -76 44 l-32 0 1 -62 2 -63 -55 -3 c-65 -4 -80 10 -80 74 0 62 14 89
56 109 92 43 284 -40 284 -123 0 -17 5 -34 10 -37 6 -3 10 -32 10 -64 0 -56
-1 -59 -37 -84 -21 -14 -63 -38 -94 -52 -52 -23 -70 -26 -205 -28 l-149 -2
-67 33 c-52 26 -84 52 -141 115 -41 45 -77 90 -80 100 -4 12 -17 17 -42 17
-43 0 -151 42 -182 72 -31 29 -32 63 0 53 120 -38 165 -29 225 44 41 49 102
156 102 177 0 32 -36 33 -120 2 -62 -22 -108 -31 -170 -34 -80 -3 -85 -5 -88
-26 -6 -50 -24 -78 -48 -78 -22 0 -49 21 -187 147 -27 24 -31 25 -88 16 -68
-11 -74 -7 -70 49 1 24 -9 60 -30 104 -30 66 -33 92 -14 152 6 18 4 22 -15 22
-35 0 -127 57 -134 83 -11 40 -7 127 6 127 6 0 42 -10 79 -22 l67 -21 74 27
c40 16 90 30 111 33 32 4 39 10 44 33 6 32 22 40 121 64 78 20 75 20 62 -3
-15 -29 -12 -79 6 -109 15 -27 15 -27 -65 -108 l-81 -80 0 -82 0 -82 42 -46
c23 -25 65 -57 92 -71 45 -23 58 -25 126 -20 147 12 188 41 197 144 l5 59 -43
42 c-46 44 -59 47 -143 36 -35 -5 -46 -11 -46 -25 0 -11 10 -20 30 -24 24 -5
31 -13 36 -41 9 -49 -15 -74 -72 -74 -59 0 -92 30 -100 90 -5 41 -3 49 30 90
l35 45 113 7 c62 4 133 9 158 13 25 3 50 2 57 -3 8 -5 14 -60 17 -176 2 -93 9
-173 14 -178 14 -14 112 -38 157 -38 l40 1 -32 27 c-53 44 -69 114 -34 146 18
16 21 16 68 -7 26 -14 69 -30 93 -37 25 -7 72 -23 104 -37 57 -24 61 -24 73
-7 7 10 13 26 13 35 0 29 66 72 121 79 65 9 77 1 61 -42 -11 -32 -6 -134 7
-142 12 -8 338 43 381 59 25 9 68 22 96 30 28 7 62 19 75 28 13 8 36 17 52 21
56 13 258 146 311 204 18 21 18 22 -3 55 -28 46 -58 57 -151 57 -65 0 -84 -4
-99 -19 -23 -23 -45 -121 -37 -165 8 -40 -4 -51 -99 -93 -79 -36 -180 -47
-278 -31 -61 9 -83 20 -152 73 -22 17 -64 47 -94 65 -50 31 -60 34 -146 36
l-94 3 6 -33 c4 -28 0 -36 -32 -60 -32 -25 -39 -27 -65 -16 -35 14 -55 59 -55
123 0 42 -4 52 -30 73 -17 13 -35 24 -40 24 -6 0 -26 13 -45 29 -33 27 -42 28
-165 35 -71 4 -175 8 -230 9 -87 2 -104 5 -132 25 -24 17 -33 31 -33 52 0 36
23 50 83 50 47 0 78 23 92 68 10 34 46 53 84 46 42 -9 51 -29 51 -114 0 -67 1
-71 26 -80 33 -13 181 -13 189 0 3 5 -9 26 -28 47 -47 53 -140 210 -177 300
-32 76 -35 113 -15 179 5 18 -2 26 -42 49 -26 16 -60 42 -75 58 -20 20 -28 24
-28 13 0 -9 -15 -19 -41 -26 -83 -23 -120 11 -99 89 10 39 13 42 43 39 28 -3
32 0 35 25 2 17 -2 29 -11 33 -9 3 -68 -3 -134 -13 -98 -16 -119 -22 -121 -38
-5 -21 26 -203 37 -225 5 -10 29 -17 69 -20 106 -9 138 -60 141 -227 2 -91
-72 -127 -289 -141 l-105 -7 -3 -44 c-3 -46 -30 -80 -64 -81 -9 0 -38 17 -65
39 -27 21 -60 42 -74 46 -31 9 -59 34 -59 52 0 17 -11 16 -71 -3 -56 -19 -159
-12 -159 10 0 7 17 34 38 61 34 45 37 52 35 108 -2 35 -9 70 -19 85 -33 51
-66 175 -71 267 -7 130 11 305 42 405 25 78 85 197 125 245 9 11 28 41 42 67
l26 46 -36 64 c-34 60 -36 67 -34 150 1 55 7 98 16 115 22 43 93 112 122 119
45 12 190 -48 201 -83 3 -7 -15 -22 -39 -34 -63 -31 -78 -48 -78 -85 0 -23 10
-44 31 -69 25 -29 38 -35 70 -35 21 0 48 4 61 9 100 39 273 66 354 56 65 -8
76 -1 131 85 20 30 49 74 65 97 37 54 61 111 54 129 -3 8 -17 14 -31 14 -20 0
-29 8 -41 35 -28 68 -17 85 57 85 30 0 47 -8 77 -34 l37 -34 60 45 c98 73 97
67 19 106 -57 28 -88 37 -174 46 -58 6 -125 17 -150 25 -44 13 -48 17 -68 66
-10 23 -11 21 -11 -17 -1 -24 4 -43 9 -43 6 0 29 -12 52 -26 47 -30 44 -34
-47 -54 -53 -11 -66 -19 -122 -76 -57 -58 -63 -68 -64 -109 -1 -25 -2 -49 -3
-54 -1 -5 16 -28 37 -50 30 -32 45 -41 71 -41 39 0 63 23 72 68 8 38 14 40 32
11 14 -22 18 -94 8 -126 -10 -32 -85 -73 -134 -73 -53 0 -139 40 -179 84 -44
47 -111 158 -114 186 -7 79 0 102 46 148 l45 45 -45 48 c-25 26 -45 52 -45 56
0 4 8 22 18 38 18 30 20 30 105 30 72 0 91 4 115 22 16 12 52 24 84 28 50 6
57 5 71 -15 14 -20 18 -21 52 -10 39 13 46 42 10 48 -42 7 -48 11 -35 27 21
25 -21 98 -84 147 -31 24 -56 48 -56 54 0 7 28 11 83 10 l82 -1 25 46 c79 146
120 201 178 240 41 27 56 31 140 36 91 6 96 7 144 45 27 22 80 52 116 68 118
49 121 51 138 97 17 43 122 153 146 153 7 0 21 9 32 19 12 11 89 54 171 97 83
43 163 88 179 101 39 32 65 26 99 -24z m977 -4882 c0 -35 25 -82 55 -103 5 -4
33 -8 60 -8 28 0 55 4 60 8 30 21 55 68 55 103 0 21 4 40 8 43 5 3 24 -7 43
-23 19 -15 42 -30 52 -34 9 -4 20 -15 24 -24 4 -10 22 -37 41 -60 32 -37 40
-42 93 -48 33 -4 59 -10 59 -13 -1 -15 -40 -52 -64 -62 -14 -5 -62 -13 -107
-16 -75 -7 -81 -5 -95 15 -26 37 -39 25 -41 -40 -3 -62 -27 -132 -57 -162 -12
-12 -34 -17 -71 -17 -37 0 -59 5 -71 17 -30 30 -54 100 -57 162 -2 65 -15 77
-41 40 -14 -20 -20 -22 -95 -15 -45 3 -93 11 -107 16 -24 10 -63 47 -64 62 0
3 26 9 59 13 53 6 61 11 93 48 19 23 37 50 41 60 4 9 15 20 24 24 10 4 33 19
52 34 19 16 38 26 43 23 4 -3 8 -22 8 -43z"/>
<path d="M5543 8513 c-78 -58 -273 -224 -273 -232 0 -10 32 -54 50 -68 43 -34
141 7 233 97 42 42 80 70 92 70 12 0 50 -28 92 -70 92 -90 190 -131 233 -97
18 14 50 58 50 68 0 8 -195 174 -273 232 -43 32 -58 37 -102 37 -44 0 -59 -5
-102 -37z"/>
<path d="M4413 8430 c-34 -14 -113 -95 -113 -116 0 -28 112 -194 168 -250 77
-76 79 -77 169 -65 125 17 228 73 331 179 80 84 93 104 71 117 -13 9 -118 34
-141 35 -11 0 -27 -20 -44 -55 -34 -68 -99 -135 -133 -136 -66 -4 -128 4 -154
19 -25 15 -28 21 -25 67 l3 50 35 -2 c23 -1 40 -9 49 -22 9 -15 24 -21 48 -21
29 0 36 5 48 33 40 95 -34 146 -245 171 -25 3 -55 1 -67 -4z"/>
<path d="M6745 8426 c-78 -13 -151 -41 -172 -68 -19 -24 -22 -61 -8 -95 12
-28 19 -33 48 -33 24 0 39 6 48 21 9 13 26 21 49 22 l35 2 3 -50 c3 -46 0 -52
-25 -67 -26 -15 -88 -23 -154 -19 -34 1 -99 68 -133 136 -17 35 -33 55 -44 55
-23 -1 -128 -26 -141 -35 -22 -13 -9 -33 72 -117 102 -106 205 -162 330 -179
90 -12 92 -11 169 65 53 52 168 221 168 246 0 37 -87 117 -137 124 -15 3 -64
-1 -108 -8z"/>
<path d="M4112 8318 c-7 -7 -12 -24 -12 -39 0 -24 -4 -27 -52 -32 -88 -11
-179 -47 -246 -98 -39 -30 -85 -55 -120 -65 -53 -15 -140 -69 -170 -104 -7 -8
-30 -49 -52 -91 -28 -56 -40 -92 -42 -130 l-3 -54 120 0 c74 0 140 -6 173 -15
61 -16 85 -8 90 31 2 13 8 28 12 33 5 5 -9 20 -33 36 -62 39 -73 55 -58 84 7
13 52 63 99 113 99 101 153 133 229 133 49 0 50 0 61 -39 21 -69 18 -76 -62
-126 -71 -44 -75 -49 -81 -90 -7 -43 6 -85 25 -85 12 0 12 -2 0 39 -12 44 9
97 44 111 14 5 81 14 148 20 68 5 139 14 158 20 19 5 42 7 52 4 29 -9 38 4 27
34 -21 56 -211 228 -283 255 -14 6 -17 14 -12 37 6 34 5 35 -12 18z"/>
<path d="M7166 8301 c5 -24 3 -32 -12 -38 -72 -27 -262 -199 -283 -255 -11
-30 -2 -43 27 -34 10 3 33 1 52 -4 19 -6 90 -15 158 -20 67 -6 134 -15 148
-20 35 -14 56 -67 44 -111 -12 -41 -12 -39 0 -39 19 0 32 42 25 85 -6 41 -10
46 -81 90 -80 50 -83 57 -62 126 11 39 12 39 61 39 76 0 130 -32 229 -133 47
-50 92 -100 99 -113 15 -29 4 -45 -58 -84 -24 -16 -38 -31 -33 -36 4 -5 10
-20 12 -33 5 -39 29 -47 90 -31 33 9 99 15 173 15 l120 0 -3 54 c-2 38 -14 74
-42 130 -22 42 -45 83 -52 91 -30 35 -117 89 -170 104 -35 10 -81 35 -120 65
-67 51 -158 87 -246 98 -48 5 -52 8 -52 33 0 15 -7 33 -15 40 -13 11 -14 8 -9
-19z"/>
<path d="M5048 8128 c-48 -57 -102 -123 -120 -148 -30 -39 -39 -45 -76 -48
-23 -2 -42 -7 -42 -11 0 -12 63 -68 97 -85 35 -17 65 -55 80 -101 9 -27 14
-30 49 -27 45 3 103 20 122 35 28 22 12 44 -58 75 -89 39 -94 66 -16 82 27 5
34 14 59 75 15 39 42 87 58 108 30 37 30 38 14 65 -21 32 -66 82 -75 82 -4 0
-45 -46 -92 -102z"/>
<path d="M6118 8203 c-14 -16 -33 -40 -43 -55 -16 -27 -16 -28 14 -65 16 -21
43 -69 58 -108 25 -61 32 -70 59 -75 78 -16 73 -43 -16 -82 -70 -31 -86 -53
-57 -75 18 -15 76 -32 121 -35 35 -3 40 0 49 27 15 46 45 84 80 101 34 17 97
73 97 85 0 4 -19 9 -42 11 -37 3 -46 9 -76 48 -52 70 -205 250 -212 250 -3 0
-18 -12 -32 -27z"/>
<path d="M5540 8100 c-8 -6 -31 -14 -50 -20 -65 -18 -159 -116 -176 -185 -9
-36 -1 -32 77 30 110 88 185 163 174 174 -7 7 -15 7 -25 1z"/>
<path d="M5724 8098 c-8 -12 71 -90 175 -173 78 -62 86 -66 77 -30 -16 64
-112 169 -166 182 -14 3 -37 12 -52 19 -20 10 -29 11 -34 2z"/>
<path d="M5541 7948 c-47 -44 -109 -106 -137 -137 l-51 -56 50 -57 c66 -76 81
-75 141 7 41 56 54 65 101 65 47 0 60 -9 101 -65 60 -82 75 -83 141 -7 l50 57
-51 56 c-92 100 -213 209 -236 214 -17 3 -42 -14 -109 -77z"/>
<path d="M4450 7931 c-8 -5 -35 -11 -58 -15 -51 -8 -101 -32 -193 -92 -61 -40
-72 -44 -130 -44 -45 0 -60 -3 -49 -10 8 -5 50 -10 92 -10 42 0 79 -4 82 -8 3
-5 0 -25 -6 -45 -6 -20 -9 -40 -5 -43 3 -3 45 0 94 7 l89 12 0 31 c1 46 51
147 90 179 41 34 36 62 -6 38z"/>
<path d="M6806 7931 c-3 -5 9 -22 28 -38 39 -32 89 -133 90 -179 l0 -31 89
-12 c49 -7 91 -10 94 -7 4 3 1 23 -5 43 -6 20 -9 40 -6 45 3 4 40 8 82 8 42 0
84 5 92 10 11 7 -4 10 -49 10 -58 0 -69 4 -130 44 -92 60 -139 83 -197 94 -27
5 -56 13 -65 16 -10 4 -20 3 -23 -3z"/>
<path d="M4595 7868 c-29 -16 -105 -90 -105 -103 0 -6 9 -28 20 -50 24 -48 25
-119 2 -161 -9 -17 -40 -51 -69 -76 l-51 -46 -82 -1 c-50 -1 -99 5 -126 14
-101 34 -156 15 -204 -71 -78 -142 -90 -154 -157 -154 l-53 0 5 -42 c3 -24 8
-55 10 -69 5 -35 -10 -126 -39 -234 -29 -108 -48 -155 -87 -212 -16 -23 -29
-43 -29 -45 0 -2 59 -4 130 -4 l130 -2 0 39 c0 46 -22 96 -56 124 -13 11 -25
31 -26 44 -3 23 -2 23 85 22 l87 -2 0 51 c0 69 35 136 123 233 l71 79 -32 29
c-58 55 -31 98 50 80 30 -7 52 -21 73 -45 17 -21 39 -36 51 -36 13 0 52 28 95
68 91 84 156 132 181 132 10 0 37 14 61 31 23 17 57 37 76 45 22 9 31 19 28
28 -16 41 -28 100 -23 113 8 20 43 8 81 -28 37 -35 68 -37 89 -7 21 30 20 71
-2 98 -15 18 -21 20 -45 11 -59 -23 -167 -5 -167 27 0 9 9 26 21 38 25 27 14
56 -31 79 -34 18 -57 19 -85 3z"/>
<path d="M6608 7864 c-44 -23 -54 -51 -29 -78 12 -12 21 -29 21 -38 0 -32
-108 -50 -167 -27 -24 9 -30 7 -45 -11 -22 -27 -23 -68 -2 -98 21 -30 52 -28
89 7 38 36 73 48 81 28 5 -13 -7 -72 -23 -113 -3 -9 6 -19 28 -28 19 -8 53
-28 76 -45 24 -17 51 -31 61 -31 25 0 90 -48 181 -132 43 -40 82 -68 95 -68
12 0 34 15 51 36 21 24 43 38 73 45 81 18 108 -25 50 -80 l-32 -29 71 -79 c88
-97 123 -164 123 -233 l0 -51 88 2 c86 1 87 1 84 -22 -1 -13 -13 -33 -26 -44
-34 -28 -56 -78 -56 -124 l0 -39 130 2 c71 0 130 2 130 4 0 2 -13 22 -29 45
-39 57 -58 104 -87 212 -29 108 -44 199 -39 234 2 14 7 45 10 69 l5 42 -53 0
c-67 0 -79 12 -157 154 -48 86 -103 105 -204 71 -27 -9 -76 -15 -126 -14 l-82
1 -51 46 c-29 25 -60 59 -69 76 -23 42 -22 113 2 161 11 22 20 44 20 50 0 14
-77 89 -107 104 -29 15 -52 13 -85 -5z"/>
<path d="M5100 7609 c-63 -39 -128 -78 -143 -88 -72 -42 -352 -221 -418 -267
-106 -74 -319 -300 -319 -340 0 -6 -22 -36 -49 -67 -70 -80 -84 -130 -79 -275
3 -84 9 -128 22 -157 10 -22 32 -71 50 -110 27 -62 49 -88 186 -224 85 -84
178 -170 205 -191 28 -21 102 -58 165 -83 63 -25 149 -61 190 -81 103 -50 113
-49 105 12 -9 66 -31 92 -95 113 -72 23 -170 124 -170 173 l0 32 -65 -4 c-58
-4 -70 -1 -106 22 -22 15 -45 38 -51 52 -10 21 -17 24 -37 19 -15 -3 -47 -8
-73 -12 -43 -5 -48 -3 -48 14 0 11 14 32 30 48 24 23 30 37 30 71 0 45 -30 94
-57 94 -8 0 -30 7 -49 16 -19 9 -43 14 -54 11 -23 -6 -40 18 -40 55 0 35 46
96 88 116 52 24 52 49 0 103 -24 25 -54 52 -68 61 -22 14 -23 17 -10 33 14 17
31 17 143 2 13 -1 26 18 51 76 38 87 95 163 135 180 14 6 40 23 56 38 32 28
122 79 141 79 23 0 180 78 251 124 40 26 85 63 100 83 40 53 79 89 159 149 40
29 75 58 79 64 8 14 -41 80 -60 80 -8 0 -26 11 -41 25 -15 14 -30 25 -33 25
-3 0 -58 -32 -121 -71z"/>
<path d="M5553 7608 c-44 -40 -97 -86 -117 -101 l-36 -28 17 -30 c10 -17 34
-40 53 -52 34 -22 35 -22 10 -25 -14 -2 -30 -8 -37 -13 -7 -6 -13 -6 -17 0 -4
5 -23 15 -44 21 -20 7 -43 19 -50 28 -11 14 -19 10 -68 -38 -32 -32 -66 -77
-80 -107 -20 -44 -30 -54 -78 -77 -30 -14 -60 -26 -66 -26 -7 0 -23 -9 -37
-20 -14 -11 -40 -20 -58 -20 -23 0 -48 -12 -84 -41 -55 -44 -67 -66 -26 -47
19 9 28 9 37 0 21 -21 -12 -41 -77 -48 -43 -4 -68 -13 -90 -31 -28 -24 -115
-146 -115 -162 0 -4 14 -12 30 -18 17 -6 30 -18 30 -26 0 -9 -14 -46 -31 -82
l-31 -67 17 -51 c22 -68 56 -147 64 -149 27 -6 67 -3 74 6 5 8 12 5 21 -7 11
-14 15 -15 19 -5 4 8 6 7 6 -4 1 -10 -5 -18 -12 -18 -7 0 -21 -6 -31 -13 -17
-12 -17 -16 -2 -51 9 -21 35 -55 58 -76 36 -32 52 -39 103 -44 114 -13 221
-60 329 -145 34 -26 73 -54 86 -61 54 -28 80 -62 80 -105 0 -49 -26 -79 -78
-90 -53 -11 -42 -23 88 -98 45 -26 59 -42 81 -87 36 -76 107 -140 154 -140 47
0 118 64 154 140 22 45 36 61 81 87 130 75 141 87 88 98 -52 11 -78 41 -78 90
0 43 26 77 80 105 13 7 52 35 86 61 108 85 215 132 329 145 51 5 67 12 103 44
23 21 49 55 58 76 15 35 15 39 -2 51 -10 7 -24 13 -31 13 -7 0 -13 8 -12 18 0
11 2 12 6 4 4 -10 8 -9 19 5 9 12 16 15 21 7 7 -9 47 -12 74 -6 8 2 42 81 64
149 l17 51 -31 67 c-17 36 -31 73 -31 82 0 8 14 20 30 26 17 6 30 14 30 18 0
16 -87 138 -115 162 -22 18 -47 27 -90 31 -65 7 -98 27 -77 48 9 9 18 9 37 0
41 -19 29 3 -26 47 -36 29 -61 41 -84 41 -18 0 -44 9 -58 20 -14 11 -30 20
-37 20 -6 0 -36 12 -66 26 -48 23 -58 33 -78 77 -14 30 -48 75 -80 107 -49 48
-57 52 -68 38 -7 -9 -30 -21 -50 -28 -21 -6 -40 -16 -44 -21 -4 -6 -10 -6 -17
0 -7 5 -23 11 -37 13 -25 3 -24 3 10 25 19 12 43 35 53 52 l17 30 -36 28 c-20
15 -73 61 -117 101 -44 39 -85 72 -92 72 -7 0 -48 -33 -92 -72z m-272 -418
c28 0 36 -30 13 -47 -66 -48 -84 -80 -40 -69 18 4 24 2 22 -9 -3 -23 -15 -30
-49 -30 -17 0 -32 -6 -35 -14 -3 -9 1 -11 17 -6 16 5 21 2 21 -11 0 -16 1 -16
18 -1 10 10 26 17 36 17 12 0 16 5 12 18 -5 14 1 17 27 18 17 1 24 -1 14 -3
-10 -3 -16 -11 -15 -18 2 -8 -6 -21 -17 -29 -18 -13 -16 -14 24 -5 56 12 64
17 57 36 -3 8 -2 11 3 8 5 -3 12 -1 15 4 8 12 77 11 93 -1 7 -6 27 -6 45 -2
18 4 45 7 60 6 20 -2 28 4 34 20 l7 23 10 -23 c7 -15 18 -22 36 -20 14 1 41
-2 59 -6 18 -4 38 -4 45 2 16 12 85 13 93 1 3 -5 10 -7 15 -4 5 3 6 0 3 -8 -7
-19 1 -24 57 -36 40 -9 42 -8 24 5 -11 8 -19 21 -17 29 1 7 -5 15 -15 18 -10
2 -3 4 14 3 26 -1 32 -4 27 -18 -4 -13 0 -18 12 -18 10 0 26 -7 36 -17 17 -15
18 -15 18 1 0 13 5 16 21 11 16 -5 20 -3 17 6 -3 8 -18 14 -35 14 -34 0 -46 7
-49 30 -2 11 4 13 22 9 44 -11 26 21 -40 69 -24 17 -15 47 14 47 11 0 20 6 20
14 0 17 44 10 61 -10 6 -8 17 -14 24 -14 6 0 24 -13 38 -30 15 -16 34 -30 41
-30 8 0 21 -6 28 -12 29 -28 128 -98 138 -98 5 0 10 5 10 11 0 5 5 7 12 3 9
-6 9 -9 0 -12 -8 -2 -4 -14 13 -34 14 -16 26 -37 27 -46 4 -47 16 -70 60 -117
41 -42 46 -67 24 -110 -8 -16 -20 -59 -26 -98 -8 -47 -15 -65 -21 -56 -6 10
-9 11 -9 1 0 -7 5 -21 12 -32 7 -10 9 -23 5 -27 -5 -4 -12 -1 -17 7 -13 20
-12 3 0 -21 7 -13 7 -19 0 -19 -5 0 -10 -8 -10 -17 0 -15 2 -16 10 -3 8 12 10
11 10 -8 0 -16 -5 -22 -16 -20 -9 2 -21 -6 -28 -17 -6 -11 -17 -24 -23 -28 -7
-4 -13 -15 -13 -22 0 -8 -4 -15 -10 -15 -5 0 -10 -6 -10 -13 0 -8 -10 -13 -22
-13 -13 1 -26 -8 -33 -20 -8 -17 -14 -19 -29 -10 -14 8 -20 8 -23 0 -2 -7 -13
-10 -23 -7 -17 5 -18 2 -10 -26 9 -31 7 -33 -37 -62 -26 -16 -53 -29 -60 -29
-7 0 -13 -5 -13 -12 0 -6 -7 -3 -15 8 -14 19 -14 18 -15 -3 0 -18 -6 -23 -26
-23 -14 0 -40 -6 -57 -14 -61 -27 -97 -36 -97 -24 0 6 -10 3 -22 -8 -30 -27
-78 -56 -78 -48 0 4 -7 1 -15 -6 -12 -10 -16 -9 -21 4 -9 24 -44 20 -44 -4 0
-11 -5 -20 -11 -20 -6 0 -8 -7 -5 -16 14 -36 -68 -59 -107 -30 -10 8 -15 20
-11 30 3 9 1 16 -5 16 -6 0 -11 9 -11 20 0 24 -35 28 -44 4 -5 -13 -9 -14 -21
-4 -8 7 -15 10 -15 6 0 -8 -48 21 -77 48 -13 11 -23 14 -23 8 0 -12 -36 -3
-97 24 -17 8 -43 14 -57 14 -20 0 -26 5 -26 23 -1 21 -1 22 -15 3 -8 -11 -15
-14 -15 -8 0 7 -6 12 -13 12 -7 0 -34 13 -60 29 -44 29 -46 31 -37 62 8 28 7
31 -10 26 -10 -3 -21 0 -23 7 -3 8 -9 8 -23 0 -15 -9 -21 -7 -29 10 -7 12 -20
21 -33 20 -12 0 -22 5 -22 13 0 7 -4 13 -10 13 -5 0 -10 7 -10 15 0 7 -6 18
-12 22 -7 4 -18 17 -24 28 -7 11 -19 19 -28 17 -11 -2 -16 4 -16 20 0 19 2 20
10 8 8 -13 10 -12 10 3 0 9 -5 17 -10 17 -7 0 -7 6 0 19 12 24 13 41 0 21 -5
-8 -12 -11 -17 -7 -4 4 -2 17 5 27 7 11 12 25 12 32 0 10 -3 9 -9 -1 -6 -9
-13 9 -21 56 -6 39 -18 82 -26 98 -22 43 -17 68 24 110 44 47 56 70 60 117 1
9 14 30 28 47 14 17 21 31 14 31 -6 0 -8 5 -4 12 6 9 9 9 12 0 2 -7 8 -12 13
-12 9 0 109 71 137 98 7 6 20 12 28 12 7 0 26 14 41 30 14 17 32 30 38 30 7 0
18 6 25 14 15 19 54 25 58 9 2 -7 12 -13 23 -13z m-581 -599 c0 -5 3 -16 6
-25 3 -9 2 -16 -4 -16 -5 0 -12 11 -14 25 -3 14 -1 25 3 25 5 0 9 -4 9 -9z
m1902 -16 c-2 -14 -9 -25 -14 -25 -6 0 -7 7 -4 16 3 9 6 20 6 25 0 5 4 9 9 9
4 0 6 -11 3 -25z m-1055 -567 c-3 -8 -6 -5 -6 6 -1 11 2 17 5 13 3 -3 4 -12 1
-19z m200 0 c-3 -8 -6 -5 -6 6 -1 11 2 17 5 13 3 -3 4 -12 1 -19z m-38 -117
c7 -5 15 -28 18 -52 7 -64 -19 -94 -82 -94 -63 0 -89 30 -82 94 6 52 17 61 82
61 28 0 56 -4 64 -9z"/>
<path d="M5610 7033 c-32 -11 -33 -13 -13 -19 14 -4 20 -12 17 -22 -2 -10 3
-5 11 11 18 33 26 33 43 -2 7 -14 10 -18 7 -8 -2 10 1 17 10 17 28 0 23 16 -8
25 -23 7 -42 7 -67 -2z"/>
<path d="M5100 7001 c0 -12 -5 -32 -11 -44 -14 -26 -79 -87 -94 -87 -6 0 -19
-13 -28 -30 -17 -27 -15 -34 6 -31 4 0 7 -4 7 -10 0 -6 -9 -9 -20 -6 -28 7
-57 -38 -63 -100 -1 -13 -8 -23 -15 -23 -8 0 -12 -3 -10 -7 32 -70 54 -107 73
-121 12 -9 20 -23 17 -30 -2 -6 1 -12 7 -12 6 0 11 -9 11 -20 0 -22 7 -25 29
-11 7 5 10 14 6 21 -4 6 1 18 11 25 12 9 15 18 9 22 -5 5 -11 26 -12 47 -1 22
-6 42 -11 45 -16 11 -22 43 -11 57 6 8 8 25 5 39 -5 21 -1 31 24 51 16 14 30
32 30 39 0 8 11 22 25 33 14 11 25 25 25 31 0 6 8 11 18 11 25 0 56 35 49 55
-7 17 -33 20 -42 5 -10 -17 -25 -11 -25 9 0 11 6 21 13 24 9 3 7 10 -5 23 -17
18 -18 18 -18 -5z m-140 -281 c0 -5 -4 -10 -10 -10 -5 0 -10 5 -10 10 0 6 5
10 10 10 6 0 10 -4 10 -10z"/>
<path d="M6170 7004 c-12 -13 -12 -18 -2 -21 6 -3 12 -13 12 -24 0 -20 -15
-26 -25 -9 -9 15 -35 12 -42 -5 -7 -20 24 -55 49 -55 10 0 18 -5 18 -11 0 -6
11 -20 25 -31 14 -11 25 -25 25 -33 0 -7 14 -25 30 -39 25 -20 29 -30 24 -51
-3 -14 -1 -31 5 -39 11 -14 5 -46 -11 -57 -5 -3 -10 -23 -11 -45 -1 -21 -6
-42 -12 -47 -6 -4 -3 -13 9 -22 10 -7 15 -19 11 -25 -4 -7 -1 -16 6 -21 22
-14 29 -11 29 11 0 11 5 20 11 20 6 0 9 6 7 12 -3 7 5 21 17 30 19 14 41 51
73 121 2 4 -2 7 -10 7 -7 0 -14 10 -15 23 -6 62 -35 107 -63 100 -11 -3 -20 0
-20 6 0 6 3 10 8 10 20 -3 22 4 5 31 -9 17 -22 30 -28 30 -21 0 -94 78 -100
106 -4 16 -8 33 -9 38 -1 4 -8 0 -16 -10z m180 -284 c0 -5 -4 -10 -10 -10 -5
0 -10 5 -10 10 0 6 5 10 10 10 6 0 10 -4 10 -10z"/>
<path d="M5157 7003 c-12 -12 -7 -30 8 -30 8 0 15 9 15 19 0 18 -11 24 -23 11z"/>
<path d="M6110 6993 c0 -11 7 -20 15 -20 18 0 16 28 -2 35 -8 2 -13 -5 -13
-15z"/>
<path d="M5525 6990 c-8 -13 20 -24 41 -16 20 8 9 26 -16 26 -10 0 -22 -5 -25
-10z"/>
<path d="M5715 6990 c-8 -13 20 -24 41 -16 20 8 9 26 -16 26 -10 0 -22 -5 -25
-10z"/>
<path d="M5060 6959 c0 -5 5 -7 10 -4 6 3 10 8 10 11 0 2 -4 4 -10 4 -5 0 -10
-5 -10 -11z"/>
<path d="M5571 6956 c-10 -12 -8 -17 8 -26 12 -6 21 -7 21 -3 0 4 5 0 11 -10
13 -22 29 -13 30 16 0 14 2 17 6 7 2 -8 7 -22 10 -30 4 -12 7 -12 19 4 8 11
14 17 14 13 0 -4 10 -3 21 4 19 10 20 12 6 26 -10 10 -22 13 -34 8 -25 -11
-64 -12 -69 -3 -8 13 -30 9 -43 -6z"/>
<path d="M6215 6960 c3 -5 8 -10 11 -10 2 0 4 5 4 10 0 6 -5 10 -11 10 -5 0
-7 -4 -4 -10z"/>
<path d="M5436 6874 c-4 -10 -2 -13 6 -8 7 5 9 1 6 -13 -5 -17 -1 -19 31 -17
20 1 37 2 39 3 1 1 -5 12 -14 26 -18 28 -59 34 -68 9z"/>
<path d="M5616 6881 c-3 -5 10 -9 29 -9 19 0 32 4 29 9 -3 5 -16 9 -29 9 -13
0 -26 -4 -29 -9z"/>
<path d="M5786 6865 c-9 -14 -15 -25 -14 -26 2 -1 19 -2 39 -3 32 -2 36 0 31
17 -3 14 -1 18 6 13 8 -5 10 -2 6 8 -9 25 -50 19 -68 -9z"/>
<path d="M5564 6838 c-3 -4 3 -5 12 -1 11 4 15 2 11 -4 -4 -6 0 -16 8 -23 8
-7 15 -20 15 -29 0 -13 9 -17 35 -17 26 0 35 4 35 17 0 9 7 22 15 29 8 7 12
17 8 23 -4 7 0 8 13 3 10 -4 15 -4 11 0 -9 10 -158 11 -163 2z"/>
<path d="M5588 6610 c-9 -17 -33 -40 -53 -51 -19 -12 -35 -25 -35 -30 0 -18
25 -8 55 21 58 56 126 56 180 0 16 -16 35 -30 42 -30 23 0 14 18 -21 38 -19
11 -42 33 -52 49 -10 15 -20 30 -22 33 -2 3 -8 -3 -13 -13 -12 -21 -38 -22
-45 -2 -9 22 -17 18 -36 -15z"/>
<path d="M5230 6532 c-39 -18 -60 -39 -60 -59 0 -13 4 -23 10 -23 5 0 21 -12
37 -27 15 -16 30 -27 33 -26 3 1 21 -5 40 -14 19 -8 49 -21 67 -28 31 -14 33
-19 21 -64 -1 -7 3 -16 10 -18 8 -3 10 1 5 13 -4 12 -3 15 5 10 7 -4 12 -14
12 -22 0 -8 10 -14 25 -14 22 0 30 -9 26 -32 0 -4 22 -29 49 -56 40 -39 60
-51 94 -56 78 -12 121 1 176 56 27 27 49 52 49 56 -4 23 4 32 26 32 15 0 25 6
25 14 0 8 5 18 12 22 8 5 9 2 5 -10 -5 -12 -3 -16 5 -13 7 2 11 11 10 18 -12
45 -10 50 21 64 18 7 48 20 67 28 19 9 37 15 40 14 3 -1 18 10 33 26 16 15 32
27 37 27 21 0 8 46 -18 65 -20 15 -47 21 -103 23 -80 4 -189 -13 -189 -29 0
-5 -7 -9 -15 -9 -8 0 -15 -9 -15 -20 0 -23 16 -26 39 -7 9 8 38 22 64 31 53
20 151 16 194 -7 21 -12 22 -14 8 -34 -8 -12 -32 -27 -53 -33 -20 -6 -51 -18
-69 -26 -17 -8 -38 -14 -48 -14 -9 0 -38 -22 -64 -50 -26 -27 -53 -50 -60 -50
-6 0 -11 -18 -11 -46 0 -37 -5 -51 -29 -75 -27 -26 -36 -29 -96 -29 -60 0 -69
3 -96 29 -24 24 -29 38 -29 75 0 28 -5 46 -11 46 -7 0 -34 23 -60 50 -26 28
-55 50 -64 50 -10 0 -31 6 -48 14 -18 8 -49 20 -69 26 -21 6 -45 21 -53 33
-14 20 -13 22 8 34 43 23 141 27 194 7 26 -9 55 -23 64 -31 23 -19 39 -16 39
7 0 11 -7 20 -15 20 -8 0 -15 4 -15 9 0 23 -218 42 -260 23z"/>
<path d="M5030 6486 c0 -9 5 -16 10 -16 6 0 10 4 10 9 0 6 -4 13 -10 16 -5 3
-10 -1 -10 -9z"/>
<path d="M6246 6491 c-4 -7 -5 -15 -2 -18 9 -9 19 4 14 18 -4 11 -6 11 -12 0z"/>
<path d="M6036 7655 c-15 -14 -33 -25 -41 -25 -19 0 -68 -66 -60 -80 4 -6 39
-35 79 -64 80 -60 119 -96 159 -149 15 -20 60 -57 100 -83 71 -46 228 -124
251 -124 19 0 109 -51 141 -79 17 -15 42 -32 56 -38 40 -17 97 -93 135 -180
25 -58 38 -77 51 -76 112 15 129 15 143 -2 13 -16 12 -19 -10 -33 -14 -9 -44
-36 -68 -61 -52 -54 -52 -79 0 -103 42 -20 88 -81 88 -116 0 -37 -17 -61 -40
-55 -11 3 -35 -2 -54 -11 -19 -9 -41 -16 -49 -16 -27 0 -57 -49 -57 -94 0 -34
6 -48 30 -71 17 -16 30 -37 30 -48 0 -17 -5 -19 -47 -14 -27 4 -59 9 -74 12
-20 5 -27 2 -37 -19 -6 -14 -29 -37 -51 -52 -36 -23 -48 -26 -106 -22 l-65 4
0 -32 c0 -49 -98 -150 -170 -173 -64 -21 -86 -47 -95 -113 -8 -61 2 -62 105
-12 41 20 127 56 190 81 63 25 138 62 165 83 28 21 120 107 205 191 137 136
159 162 186 224 18 39 40 88 50 110 13 29 19 73 22 157 5 145 -9 195 -79 275
-27 31 -49 61 -49 67 0 19 -73 110 -161 202 -93 96 -151 139 -403 296 -94 59
-184 116 -201 127 -77 49 -214 131 -227 136 -8 3 -27 -6 -42 -20z"/>
<path d="M3372 7625 c-7 -14 -12 -33 -12 -42 0 -13 -9 -15 -57 -10 -49 5 -53
4 -28 -5 17 -6 45 -22 64 -37 19 -14 56 -42 82 -61 132 -97 190 -144 209 -171
27 -37 53 -37 143 2 72 30 127 78 127 109 0 9 13 31 30 50 16 19 29 39 30 44
0 4 -34 6 -76 5 -61 -3 -78 -1 -84 11 -28 60 -29 61 -180 95 -41 10 -104 19
-140 21 -36 3 -72 7 -81 9 -10 4 -20 -4 -27 -20z"/>
<path d="M7889 7645 c-3 -2 -36 -6 -74 -8 -120 -7 -293 -52 -307 -79 -26 -56
-21 -53 -102 -49 -42 1 -76 -1 -76 -5 1 -5 14 -25 30 -44 17 -19 30 -41 30
-50 0 -31 55 -79 127 -109 90 -39 116 -39 143 -2 19 27 77 74 209 171 26 19
63 47 82 61 19 15 48 31 64 37 25 9 21 10 -27 5 -49 -5 -58 -3 -58 10 0 35
-27 76 -41 62z"/>
<path d="M4414 7630 c-5 -5 -42 -16 -82 -23 -108 -21 -124 -52 -32 -64 32 -5
51 -1 83 17 54 29 77 50 77 67 0 15 -31 18 -46 3z"/>
<path d="M6830 7627 c0 -17 23 -38 77 -67 32 -18 51 -22 83 -17 87 11 73 50
-23 62 -29 4 -65 13 -81 21 -37 18 -56 18 -56 1z"/>
<path d="M3550 7100 c-77 -77 -166 -195 -203 -269 -11 -20 -27 -45 -37 -56
-34 -40 -32 -53 15 -80 24 -15 60 -44 80 -66 l36 -40 36 22 c61 38 185 197
213 275 35 98 40 122 33 183 -7 59 -41 111 -75 111 -11 0 -52 -33 -98 -80z"/>
<path d="M7597 7151 c-26 -32 -41 -114 -29 -166 23 -100 60 -170 133 -260 42
-50 93 -102 112 -114 l36 -22 36 40 c20 22 56 51 80 66 47 27 49 40 15 80 -10
11 -26 36 -37 56 -60 120 -259 349 -301 349 -11 0 -31 -13 -45 -29z"/>
<path d="M2803 6644 c-47 -27 -60 -56 -44 -96 17 -45 48 -57 176 -68 66 -5
137 -12 158 -15 l37 -5 0 83 c0 126 -2 127 -158 127 -118 0 -130 -2 -169 -26z"/>
<path d="M8176 6648 c-11 -16 -16 -47 -16 -105 l0 -83 38 5 c20 3 91 10 157
15 128 11 159 23 176 68 16 41 3 69 -44 97 -41 23 -53 25 -170 25 -119 0 -127
-1 -141 -22z"/>
<path d="M3247 6604 c-10 -10 -9 -86 2 -102 7 -12 16 -12 57 0 41 11 49 18 49
37 0 36 -85 87 -108 65z"/>
<path d="M7985 6596 c-72 -31 -72 -74 -1 -94 59 -17 67 -9 64 58 -3 50 -15 57
-63 36z"/>
<path d="M3640 6527 c-3 -4 -28 -8 -55 -11 -28 -3 -51 -5 -52 -5 -1 -1 9 -27
22 -58 13 -35 25 -92 30 -144 3 -47 10 -91 15 -99 8 -13 57 -11 133 6 22 5 27
3 27 -13 0 -60 -128 -109 -197 -76 -32 15 -35 15 -48 -3 -8 -11 -15 -22 -15
-27 0 -12 -146 -104 -193 -122 -24 -9 -49 -25 -55 -36 -19 -30 13 -89 99 -182
l71 -77 1 -118 2 -117 45 -79 c25 -43 70 -106 100 -140 31 -33 67 -79 82 -102
l26 -41 148 1 149 1 13 27 c9 19 10 38 3 68 -8 36 -6 44 17 71 32 39 24 55
-44 88 -44 22 -64 24 -212 27 -107 2 -168 7 -178 15 -7 6 -19 29 -25 51 -9 36
-8 43 10 62 29 31 26 52 -13 98 -22 25 -43 69 -61 122 -15 50 -36 93 -50 106
-29 27 -33 60 -7 61 48 2 70 12 102 48 36 41 75 62 98 54 9 -4 11 -23 6 -76
-5 -60 -2 -82 17 -132 30 -80 102 -155 188 -197 60 -28 76 -31 166 -33 107 -1
125 -6 125 -33 0 -11 19 2 58 39 31 31 85 83 120 116 62 60 75 90 49 111 -19
16 -122 -13 -172 -49 -22 -16 -53 -45 -68 -64 -20 -26 -36 -35 -57 -35 -36 0
-43 11 -50 75 -5 47 -7 50 -35 53 -34 4 -61 24 -68 52 -7 25 1 34 58 62 50 26
108 37 198 40 54 1 70 14 34 27 -13 5 -64 53 -113 107 -213 234 -232 250 -331
274 -30 8 -43 16 -43 28 1 48 34 55 173 39 l67 -8 0 30 c0 17 -7 46 -16 64
-16 33 -19 35 -88 41 -39 3 -100 9 -136 12 -36 3 -67 4 -70 1z"/>
<path d="M7505 6520 c-22 -5 -61 -9 -86 -9 -42 -1 -47 -4 -62 -36 -9 -20 -17
-49 -17 -66 l0 -30 68 8 c138 16 171 9 172 -39 0 -12 -13 -20 -42 -28 -81 -20
-129 -52 -217 -149 -162 -179 -206 -223 -229 -232 -35 -13 -19 -26 35 -27 90
-3 148 -14 198 -40 57 -28 65 -37 58 -62 -7 -28 -34 -48 -68 -52 -28 -3 -30
-6 -35 -53 -7 -64 -14 -75 -50 -75 -21 0 -37 9 -57 35 -15 19 -46 48 -68 64
-50 36 -153 65 -172 49 -26 -21 -13 -51 50 -111 34 -33 88 -85 119 -116 39
-37 58 -50 58 -39 0 27 18 32 125 33 90 2 106 5 166 33 86 42 158 117 188 197
19 50 22 72 17 132 -5 53 -3 72 6 76 23 8 62 -13 98 -54 32 -36 54 -46 103
-48 25 -1 21 -34 -8 -61 -14 -13 -35 -56 -50 -106 -18 -53 -39 -97 -61 -122
-39 -46 -42 -67 -13 -98 18 -19 19 -26 10 -62 -6 -22 -18 -45 -25 -51 -10 -8
-71 -13 -178 -15 -148 -3 -168 -5 -212 -27 -68 -33 -76 -49 -44 -88 23 -27 25
-35 17 -71 -7 -30 -6 -49 3 -68 l13 -27 149 -1 148 -1 26 41 c15 23 51 69 82
102 30 34 75 97 100 140 l45 79 2 117 1 118 71 77 c86 93 118 152 99 182 -6
11 -31 27 -55 36 -47 18 -193 110 -193 122 0 5 -7 16 -15 27 -13 18 -16 18
-48 3 -69 -33 -197 16 -197 76 0 16 5 18 28 13 75 -17 124 -19 132 -6 5 8 12
52 15 99 5 52 17 109 30 144 13 31 23 57 22 58 -23 10 -215 17 -252 9z"/>
<path d="M2431 6444 c-10 -7 -24 -28 -32 -46 -7 -18 -24 -50 -37 -72 -13 -21
-30 -64 -38 -95 -8 -31 -18 -65 -23 -76 -20 -47 -33 -118 -43 -230 -10 -103
-9 -129 5 -175 8 -30 19 -77 24 -105 8 -50 8 -50 43 -47 56 6 94 33 98 69 2
22 16 44 47 72 25 23 49 41 55 41 18 0 10 26 -16 51 -27 25 -64 89 -64 111 0
7 -9 30 -20 51 -54 101 -55 185 -3 247 45 54 216 116 267 97 14 -5 14 -10 0
-42 -11 -27 -13 -53 -8 -98 6 -56 11 -67 53 -110 70 -74 128 -100 233 -105 54
-3 99 0 115 7 17 7 53 47 91 100 34 49 69 95 77 101 13 11 11 18 -17 50 -51
59 -88 112 -88 126 0 8 -31 13 -108 15 -91 4 -115 8 -162 31 -81 39 -91 41
-268 43 -118 1 -168 -2 -181 -11z"/>
<path d="M8495 6447 c-16 -5 -55 -21 -85 -36 -46 -22 -72 -26 -162 -30 -77 -2
-108 -7 -108 -15 0 -14 -37 -67 -88 -126 -28 -32 -30 -39 -17 -50 8 -6 43 -52
77 -101 38 -53 74 -93 91 -100 16 -7 61 -10 115 -7 105 5 163 31 233 105 42
43 47 54 53 110 5 45 3 71 -8 98 -14 32 -14 37 0 42 51 19 222 -43 267 -97 52
-62 51 -146 -3 -247 -11 -21 -20 -44 -20 -51 0 -22 -37 -86 -64 -111 -26 -25
-34 -51 -16 -51 6 0 30 -18 55 -41 31 -28 45 -50 47 -72 4 -36 42 -63 98 -69
35 -3 35 -3 43 47 5 28 16 75 24 105 14 46 15 72 5 175 -10 112 -23 183 -43
230 -5 11 -15 45 -23 76 -8 31 -25 74 -38 95 -13 22 -30 53 -37 71 -7 18 -20
38 -28 45 -19 16 -323 20 -368 5z"/>
<path d="M3307 6423 c-15 -14 -7 -91 12 -114 10 -13 21 -41 25 -62 6 -33 2
-45 -33 -99 -44 -65 -53 -95 -23 -83 9 4 30 11 46 16 35 10 57 29 107 92 32
40 39 57 39 92 0 53 -30 127 -61 149 -23 16 -99 22 -112 9z"/>
<path d="M7872 6414 c-32 -22 -62 -96 -62 -149 0 -35 7 -52 39 -92 50 -63 72
-82 107 -92 16 -5 37 -12 47 -16 29 -12 20 18 -24 83 -35 54 -39 65 -33 99 4
21 16 50 26 64 14 18 18 38 16 70 l-3 44 -45 3 c-30 2 -53 -3 -68 -14z"/>
<path d="M5007 6034 c-4 -4 -7 -29 -7 -55 0 -41 5 -53 36 -86 38 -40 60 -109
68 -218 3 -47 6 -51 42 -69 22 -10 63 -38 93 -62 29 -24 65 -47 80 -50 90 -18
86 -15 86 -76 0 -55 2 -59 50 -108 27 -27 55 -50 61 -50 7 0 32 23 57 50 33
37 52 50 72 50 20 0 39 -13 72 -50 25 -27 50 -50 57 -50 6 0 34 23 61 50 48
49 50 53 50 108 0 61 -4 58 86 76 15 3 51 26 80 50 30 24 71 52 93 62 36 18
39 22 42 69 8 110 30 178 68 219 34 35 37 43 34 90 l-3 51 -49 0 c-81 1 -204
-67 -180 -99 47 -64 46 -62 34 -121 -9 -44 -22 -68 -61 -113 -28 -31 -68 -71
-89 -88 -22 -17 -58 -56 -80 -85 -22 -30 -59 -67 -83 -83 -23 -16 -57 -40 -76
-53 -19 -13 -44 -23 -56 -23 -12 0 -37 10 -56 23 -19 13 -53 37 -76 53 -24 16
-61 53 -83 83 -22 29 -58 68 -80 85 -21 17 -61 57 -89 88 -39 45 -52 69 -61
113 -12 59 -13 57 34 121 14 18 -7 40 -68 70 -50 25 -145 42 -159 28z"/>
<path d="M2660 5720 l-95 -97 101 -17 c137 -22 164 -21 164 3 0 29 -50 184
-63 197 -9 8 -37 -15 -107 -86z"/>
<path d="M8522 5807 c-13 -16 -62 -173 -62 -199 0 -20 3 -20 73 -14 39 4 99
13 132 19 l60 12 -97 97 c-69 69 -100 93 -106 85z"/>
<path d="M4490 5763 l-55 -4 4 -118 c2 -89 -1 -132 -13 -172 -25 -84 -36 -93
-109 -94 -37 -1 -75 -8 -94 -18 -18 -9 -37 -17 -42 -17 -14 0 -51 73 -51 99 0
11 -4 23 -10 26 -18 11 -11 -34 16 -98 14 -34 28 -64 30 -66 2 -2 22 11 44 29
34 27 47 31 75 27 19 -3 65 -1 101 5 l66 10 37 -35 c67 -64 148 -80 264 -53
69 16 91 34 113 92 19 50 14 82 -19 118 -36 40 -62 42 -77 6 -7 -17 -26 -42
-42 -56 -72 -59 -140 34 -93 126 21 41 43 50 120 50 56 0 79 -6 139 -35 102
-49 163 -46 123 6 -36 48 -282 153 -392 169 -38 5 -72 9 -75 8 -3 -1 -30 -3
-60 -5z"/>
<path d="M6655 5759 c-101 -15 -348 -123 -382 -168 -40 -52 21 -55 123 -6 60
29 83 35 139 35 77 0 99 -9 120 -50 47 -92 -21 -185 -93 -126 -16 14 -35 39
-42 56 -15 36 -41 34 -77 -6 -33 -36 -38 -68 -19 -118 22 -58 44 -76 113 -92
116 -27 197 -11 264 53 l37 35 66 -10 c36 -6 82 -8 101 -5 28 4 41 0 75 -27
22 -18 42 -31 44 -29 2 2 16 32 30 66 27 64 34 109 16 98 -5 -3 -10 -15 -10
-26 0 -26 -37 -99 -51 -99 -5 0 -24 8 -42 17 -19 10 -57 17 -94 18 -73 1 -84
10 -109 94 -12 40 -15 83 -13 172 l4 119 -41 0 c-23 0 -54 2 -70 4 -16 2 -56
0 -89 -5z"/>
<path d="M2600 5540 c0 -22 80 -128 120 -160 49 -39 107 -54 175 -44 74 10 92
19 114 61 19 38 19 38 -1 78 l-21 39 -31 -37 c-19 -23 -40 -37 -54 -37 -31 0
-70 27 -88 61 -16 32 -26 35 -136 44 -56 5 -78 3 -78 -5z"/>
<path d="M8561 5541 c-49 -5 -66 -11 -75 -26 -21 -38 -68 -75 -95 -75 -18 0
-36 12 -57 37 l-31 37 -21 -39 c-20 -40 -20 -40 -1 -78 22 -42 40 -51 114 -61
104 -15 182 27 255 135 22 32 40 63 40 68 0 12 -24 12 -129 2z"/>
<path d="M5100 5519 c0 -7 -6 -20 -13 -28 -16 -18 -57 -130 -57 -154 0 -8 15
-20 32 -26 18 -7 50 -28 70 -48 29 -29 38 -45 38 -71 0 -31 -2 -34 -22 -28
-48 15 -150 18 -205 8 -132 -26 -228 -31 -284 -17 -86 23 -88 22 -77 -30 11
-52 3 -69 -39 -80 -19 -4 -36 1 -64 21 -22 15 -39 32 -39 38 0 17 -52 111 -78
141 -12 14 -26 23 -31 21 -5 -3 -12 -30 -16 -61 -3 -30 -11 -57 -16 -60 -14
-9 -11 -58 6 -82 19 -28 31 -128 16 -137 -23 -14 -88 15 -209 93 -44 28 -77
29 -232 3 -82 -14 -106 -21 -108 -35 -3 -13 3 -17 23 -17 14 0 35 -5 46 -11
11 -5 82 -16 159 -22 l140 -13 47 -46 c70 -67 140 -99 233 -105 83 -6 132 5
174 38 22 17 24 24 15 41 -6 12 -9 47 -7 81 4 51 9 64 35 87 17 15 60 37 97
50 66 22 67 22 144 4 50 -12 101 -33 146 -61 77 -47 86 -47 130 11 15 20 53
54 84 75 31 22 83 64 115 94 l58 55 -27 48 c-38 70 -43 74 -80 74 -39 0 -60
26 -66 79 -4 37 -10 41 -73 61 -22 7 -46 15 -52 17 -7 3 -13 -1 -13 -8z"/>
<path d="M6130 5513 c-70 -24 -74 -27 -78 -64 -6 -53 -27 -79 -66 -79 -37 0
-42 -4 -80 -74 l-27 -48 58 -55 c32 -30 84 -72 115 -94 31 -21 69 -55 84 -75
44 -58 53 -58 130 -11 45 28 96 49 146 61 77 18 78 18 144 -4 37 -13 80 -35
97 -50 26 -23 31 -36 35 -87 2 -34 -1 -69 -7 -81 -9 -17 -7 -24 15 -41 42 -33
91 -44 174 -38 93 6 163 38 233 105 l47 46 140 13 c77 6 148 17 159 22 11 6
32 11 46 11 20 0 26 4 23 17 -2 14 -26 21 -108 35 -155 26 -188 25 -232 -3
-121 -78 -186 -107 -209 -93 -15 9 -3 109 16 137 17 24 20 73 6 82 -5 3 -13
30 -16 60 -4 31 -11 58 -16 61 -5 2 -19 -7 -31 -21 -26 -30 -78 -124 -78 -141
0 -6 -17 -23 -39 -38 -28 -20 -45 -25 -64 -21 -42 11 -50 28 -39 80 11 52 9
53 -77 30 -56 -14 -152 -9 -284 17 -55 10 -157 7 -204 -8 -21 -6 -23 -3 -23
28 0 26 9 42 38 71 20 20 52 41 70 48 17 6 32 18 32 26 0 24 -41 136 -57 154
-7 8 -13 21 -13 27 0 15 -4 14 -60 -5z"/>
<path d="M5398 5142 c-66 -39 -162 -131 -208 -201 -33 -49 -40 -69 -40 -108 0
-55 -21 -121 -53 -168 -40 -59 -98 -116 -131 -130 -60 -25 -63 -40 -16 -74 49
-35 118 -47 219 -37 61 6 69 5 88 -16 12 -13 28 -40 37 -60 8 -21 19 -38 23
-38 11 0 83 93 83 107 0 5 -23 29 -50 52 -68 57 -130 154 -130 201 0 42 40
167 69 213 11 18 63 74 115 126 53 52 96 97 96 101 0 10 -40 60 -48 60 -4 0
-28 -13 -54 -28z"/>
<path d="M5811 5144 c-12 -15 -21 -30 -21 -34 0 -4 43 -49 96 -101 52 -52 104
-108 115 -126 29 -46 69 -171 69 -213 0 -47 -62 -144 -130 -201 -27 -23 -50
-47 -50 -52 0 -14 72 -107 83 -107 4 0 15 17 23 38 9 20 25 47 37 60 19 21 27
22 88 16 101 -10 170 2 219 37 47 34 44 49 -16 74 -33 14 -91 71 -131 130 -32
47 -53 113 -53 168 0 60 -50 140 -141 225 -54 50 -142 112 -161 112 -4 0 -16
-12 -27 -26z"/>
<path d="M5624 5116 c-9 -24 4 -48 23 -44 12 2 18 12 18 28 0 29 -32 41 -41
16z"/>
<path d="M5533 5062 c-6 -4 -30 -46 -51 -93 -29 -62 -49 -92 -73 -109 -19 -13
-53 -41 -76 -64 -58 -54 -59 -92 -3 -161 21 -28 49 -63 61 -78 24 -32 63 -50
88 -42 9 3 29 21 45 42 l30 36 -24 16 c-41 28 -80 73 -80 91 0 24 49 63 72 57
27 -7 41 18 35 62 -4 35 -1 43 42 89 l47 50 44 -50 c40 -43 45 -54 42 -89 -4
-45 10 -69 36 -62 23 6 72 -33 72 -57 0 -18 -39 -63 -80 -91 l-24 -16 30 -36
c16 -21 36 -39 45 -42 25 -8 64 10 88 42 12 15 40 50 61 78 56 69 55 107 -2
161 -24 22 -59 52 -78 66 -26 19 -46 49 -74 111 -21 47 -43 88 -50 90 -27 11
-68 -7 -89 -38 l-23 -33 -22 34 c-12 19 -29 34 -36 34 -8 0 -20 2 -28 5 -7 3
-18 1 -25 -3z"/>
<path d="M5614 4471 c-16 -10 -35 -29 -42 -43 -12 -22 -10 -32 28 -104 23 -43
43 -80 44 -81 1 -2 22 35 45 81 43 82 43 84 26 110 -10 15 -30 33 -45 41 -23
12 -30 12 -56 -4z"/>
<path d="M5401 4288 c-34 -28 -61 -56 -61 -62 1 -6 28 -39 60 -74 51 -53 63
-61 79 -52 32 17 91 92 91 116 0 26 -74 124 -94 124 -8 0 -41 -23 -75 -52z"/>
<path d="M5760 4289 c-22 -28 -40 -61 -40 -73 0 -24 59 -99 91 -116 16 -9 28
-1 79 52 32 35 59 68 60 74 0 14 -118 114 -136 114 -7 0 -32 -23 -54 -51z"/>
<path d="M5203 4110 c-61 -67 -132 -180 -150 -236 -9 -30 -15 -56 -12 -58 2
-2 36 6 74 19 137 44 285 142 285 188 0 10 -24 43 -54 73 -68 68 -93 70 -143
14z"/>
<path d="M5944 4096 c-30 -30 -54 -63 -54 -73 0 -46 148 -144 285 -188 39 -13
72 -21 74 -19 3 2 -3 28 -12 58 -18 56 -89 169 -150 236 -50 56 -75 54 -143
-14z"/>
<path d="M2560 8114 c14 -9 36 -31 48 -50 21 -32 22 -40 13 -108 -14 -112 -77
-203 -161 -231 -46 -15 -47 -15 -104 15 -69 36 -115 38 -179 10 -59 -26 -67
-40 -24 -40 39 0 85 -39 111 -94 18 -37 31 -153 22 -189 -3 -14 -21 -43 -38
-66 -69 -85 -88 -115 -88 -137 0 -38 -17 -36 -68 9 -26 24 -74 54 -106 67 -55
22 -61 22 -142 10 -70 -11 -89 -18 -104 -38 -27 -33 -17 -43 34 -36 38 6 46 3
55 -14 6 -11 26 -28 43 -37 18 -10 45 -24 61 -32 21 -11 27 -22 27 -47 0 -19
3 -47 6 -63 5 -25 0 -37 -30 -69 -19 -21 -41 -47 -49 -58 -13 -18 -15 -18 -57
4 -39 20 -55 22 -133 17 -60 -3 -94 -9 -104 -20 -13 -13 -10 -17 27 -38 43
-24 67 -61 96 -143 12 -34 19 -235 12 -340 -1 -19 8 -19 -186 0 -38 4 -67 1
-98 -11 -50 -19 -55 -31 -19 -45 76 -29 193 -199 180 -261 -4 -16 7 -58 29
-115 30 -79 55 -192 45 -203 -2 -3 -47 -5 -99 -6 -86 0 -99 -3 -145 -30 -62
-36 -71 -48 -84 -105 -13 -58 -5 -67 26 -30 36 43 96 42 164 -2 46 -29 99
-101 99 -132 0 -16 56 -121 86 -161 26 -36 36 -66 26 -81 -4 -6 -29 -14 -55
-18 -138 -21 -213 -85 -202 -172 5 -41 40 -85 60 -77 8 2 17 18 20 34 6 28 9
29 61 29 67 0 109 -17 164 -66 45 -41 77 -95 82 -140 3 -27 0 -29 -43 -35 -92
-14 -179 -78 -179 -132 0 -27 1 -28 38 -20 20 4 63 8 94 7 52 0 62 -4 105 -41
26 -22 64 -48 83 -58 47 -24 139 -92 173 -128 44 -48 37 -61 -62 -112 -97 -50
-116 -66 -126 -107 -9 -33 4 -36 29 -7 16 19 26 21 86 17 54 -4 89 -15 178
-57 61 -28 144 -73 186 -101 42 -27 82 -50 90 -50 8 0 18 -4 21 -10 3 -5 11
-10 17 -10 7 0 6 5 -1 14 -9 11 -9 22 3 49 17 42 41 57 90 57 20 0 36 3 36 7
0 4 -39 46 -87 94 -49 48 -108 112 -133 143 -49 60 -60 67 -60 36 0 -23 -8
-24 -59 -10 -20 5 -64 16 -98 24 -69 16 -139 65 -149 104 -12 42 18 68 85 75
33 4 68 4 77 0 14 -5 15 -3 6 14 -6 11 -18 26 -27 33 -9 8 -47 75 -84 149 -37
75 -77 152 -89 171 -12 19 -22 45 -22 58 0 12 -11 44 -25 71 -13 27 -22 51
-18 54 3 3 -4 21 -16 40 -11 19 -21 41 -21 48 0 8 -11 38 -25 66 -13 29 -20
55 -16 57 9 6 -1 92 -23 201 -8 39 -17 122 -21 185 -3 63 -13 154 -22 202 -14
80 -14 103 1 243 24 229 72 417 130 503 41 62 91 161 84 168 -3 3 -19 -14 -35
-38 -16 -23 -36 -44 -45 -46 -17 -3 -45 48 -74 136 -16 52 -16 54 3 80 15 20
30 28 60 30 35 3 44 -1 71 -32 17 -19 35 -43 41 -53 10 -16 16 -12 65 42 30
33 58 71 61 85 4 14 13 32 20 40 19 21 57 92 52 96 -2 2 -24 -23 -48 -56 -24
-33 -49 -60 -56 -60 -13 0 -36 34 -28 42 2 2 6 38 9 80 9 142 62 186 141 117
37 -33 44 -49 20 -49 -8 0 -21 -13 -30 -30 -11 -21 -12 -30 -3 -30 18 0 77 69
104 123 14 26 32 51 40 54 8 3 22 20 31 37 9 17 24 42 35 56 90 119 161 201
254 294 82 82 105 110 92 113 -15 4 -18 16 -18 79 0 42 5 84 11 95 10 20 10
20 -22 3 l-32 -16 -41 47 c-35 40 -50 49 -101 61 -33 7 -76 14 -95 14 l-35 -1
25 -15z m74 -405 c51 -24 43 -54 -43 -161 -64 -80 -81 -76 -103 22 -24 110
-23 124 10 137 37 15 105 16 136 2z m-711 -1035 c36 -7 38 -8 31 -38 -3 -17
-24 -85 -45 -151 -21 -66 -39 -128 -39 -137 0 -24 -12 -23 -39 6 -34 36 -57
164 -43 239 6 32 16 65 23 73 12 15 51 18 112 8z m-94 -669 c3 -4 8 -65 10
-136 3 -145 1 -149 -65 -108 -39 24 -50 40 -80 125 -24 69 -20 84 29 115 30
19 88 21 106 4z m63 -682 c23 -26 35 -53 42 -97 l7 -39 -48 7 c-52 7 -85 26
-117 69 l-20 27 24 25 c29 30 89 35 112 8z m181 -420 c19 -22 83 -167 92 -211
7 -32 6 -32 -21 -22 -36 14 -172 97 -202 124 -54 48 -50 71 17 106 46 24 93
25 114 3z"/>
<path d="M8637 8120 c-48 -9 -106 -40 -112 -61 -3 -9 -14 -24 -24 -33 -18 -16
-21 -16 -51 -1 -31 16 -31 16 -21 -4 6 -11 11 -53 11 -95 0 -63 -3 -75 -17
-79 -14 -3 9 -31 91 -113 93 -93 164 -175 254 -294 11 -14 26 -39 35 -56 9
-17 23 -34 31 -37 8 -3 26 -28 40 -54 27 -54 86 -123 104 -123 9 0 8 9 -3 30
-9 17 -22 30 -30 30 -24 0 -17 16 20 49 79 69 132 25 141 -117 3 -42 7 -78 9
-80 8 -8 -15 -42 -28 -42 -7 0 -32 27 -56 60 -24 33 -46 58 -48 56 -5 -4 33
-75 52 -96 7 -8 16 -26 20 -40 3 -14 31 -52 61 -85 49 -54 55 -58 65 -42 6 10
24 34 41 53 27 31 36 35 71 32 30 -2 45 -10 60 -30 19 -26 19 -28 3 -80 -29
-88 -57 -139 -74 -136 -9 2 -29 23 -45 46 -16 24 -32 41 -35 38 -7 -7 43 -106
84 -168 58 -86 106 -274 130 -503 15 -140 15 -163 1 -243 -9 -48 -19 -139 -22
-202 -4 -63 -13 -146 -21 -185 -22 -109 -32 -195 -23 -201 4 -2 -3 -28 -16
-57 -14 -28 -25 -58 -25 -66 0 -7 -10 -29 -21 -48 -12 -19 -19 -37 -16 -40 4
-3 -5 -27 -18 -54 -14 -27 -25 -59 -25 -71 0 -13 -10 -39 -22 -58 -12 -19 -52
-96 -89 -171 -37 -74 -75 -141 -84 -149 -9 -7 -21 -22 -27 -33 -9 -17 -8 -19
6 -14 9 4 44 4 77 0 67 -7 97 -33 85 -75 -10 -39 -80 -88 -149 -104 -34 -8
-78 -19 -98 -24 -51 -14 -59 -13 -59 10 0 31 -11 24 -60 -36 -25 -31 -84 -95
-132 -143 -49 -48 -88 -90 -88 -94 0 -4 16 -7 36 -7 48 0 73 -15 90 -56 13
-30 13 -37 -2 -60 l-17 -26 50 29 c27 15 63 37 79 47 84 56 138 86 222 125 74
35 108 45 164 49 66 5 72 3 89 -19 21 -29 32 -21 23 15 -8 32 -45 61 -141 111
-51 27 -73 44 -73 57 0 24 64 85 140 134 85 55 114 75 154 107 44 36 121 46
184 24 l42 -15 0 32 c0 59 -82 121 -179 135 -43 6 -46 8 -43 35 5 43 35 96 79
137 50 48 88 66 143 69 72 4 78 2 85 -29 15 -70 74 -27 78 57 2 46 -1 54 -32
86 -35 36 -90 59 -168 71 -23 4 -47 12 -53 20 -13 16 1 56 33 94 22 27 69 118
103 198 24 58 104 113 163 113 35 0 48 -6 71 -30 15 -16 31 -30 34 -30 11 0
-6 84 -22 112 -9 15 -38 39 -66 55 -44 23 -65 28 -148 31 l-98 4 6 57 c4 31
22 96 41 145 21 57 32 99 28 115 -13 62 104 232 180 261 35 13 31 25 -15 44
-45 18 -125 21 -163 7 -13 -5 -46 -11 -72 -12 -41 -3 -49 0 -52 16 -8 47 -3
289 8 327 21 79 54 132 99 157 37 21 40 25 27 38 -10 11 -44 17 -104 20 -78 5
-94 3 -133 -17 -42 -22 -44 -22 -57 -4 -8 11 -30 37 -49 58 -30 32 -35 44 -30
69 3 16 6 44 6 62 0 30 5 36 53 60 28 14 62 38 74 52 18 23 26 25 61 19 49 -7
58 3 32 36 -15 20 -34 27 -104 38 -81 12 -87 12 -142 -10 -32 -13 -80 -43
-106 -67 -51 -45 -68 -47 -68 -9 0 22 -19 52 -87 137 -38 47 -48 90 -39 161
15 107 72 188 134 188 30 0 33 2 22 15 -7 8 -20 15 -29 15 -9 0 -25 7 -35 15
-34 25 -103 19 -163 -16 -54 -30 -55 -30 -102 -14 -86 28 -155 128 -165 240
-5 61 -3 73 16 101 12 17 33 39 47 48 l26 15 -40 0 c-22 -1 -57 -5 -78 -9z
m150 -412 c39 -14 40 -24 15 -138 -22 -98 -39 -102 -103 -22 -66 83 -79 105
-73 129 11 40 92 56 161 31z m692 -1042 c7 -8 17 -41 23 -73 14 -75 -9 -203
-43 -239 -27 -29 -39 -30 -39 -6 0 9 -18 71 -39 137 -21 66 -42 134 -46 152
-6 29 -4 32 22 36 63 9 111 7 122 -7z m81 -661 c55 -28 61 -48 36 -118 -30
-86 -41 -102 -80 -126 -62 -39 -66 -34 -66 83 0 157 5 171 63 175 10 0 31 -6
47 -14z m-50 -690 l24 -25 -20 -27 c-32 -43 -65 -62 -117 -69 l-48 -7 7 39
c14 79 43 114 94 114 26 0 43 -7 60 -25z m-181 -414 c69 -36 73 -59 19 -107
-30 -27 -166 -110 -202 -124 -27 -10 -28 -10 -21 22 9 44 73 189 92 211 21 22
65 22 112 -2z"/>
<path d="M2603 3895 c-15 -17 -33 -25 -56 -25 -63 0 -161 -89 -172 -157 -4
-24 -4 -43 -2 -43 3 0 29 20 58 45 54 46 109 63 166 52 74 -15 211 -58 252
-81 25 -14 74 -40 109 -58 71 -37 77 -55 31 -90 -17 -13 -49 -39 -70 -59 -37
-35 -39 -40 -39 -98 0 -62 7 -73 31 -45 21 25 87 55 142 64 99 15 283 -18 352
-66 20 -13 45 -24 55 -24 16 0 20 -7 20 -36 0 -30 -8 -44 -56 -89 -55 -52 -57
-54 -50 -95 7 -42 31 -90 46 -90 5 0 19 14 31 31 37 52 88 69 212 69 89 0 115
-4 148 -21 31 -15 68 -21 161 -26 84 -4 121 -10 125 -19 3 -7 -7 -29 -22 -48
-47 -61 -35 -174 22 -211 14 -9 26 -15 28 -13 1 2 14 26 28 53 14 28 38 62 54
76 l28 27 145 -4 c80 -2 176 -7 215 -11 83 -10 91 -24 44 -77 -31 -36 -35 -54
-30 -138 1 -21 100 -138 116 -138 7 0 20 17 28 38 8 20 28 49 44 64 33 31 130
69 234 92 71 16 260 29 283 20 7 -3 12 -60 13 -174 3 -178 19 -300 52 -397 41
-117 70 -192 95 -239 13 -27 37 -74 53 -105 15 -31 34 -63 41 -72 26 -30 31
-76 17 -125 -8 -26 -15 -62 -15 -80 0 -18 -10 -70 -21 -115 -37 -145 -116
-212 -335 -286 -93 -31 -100 -31 -191 -3 -72 23 -163 95 -163 130 0 5 -9 17
-20 27 -17 16 -19 26 -14 69 5 40 14 59 43 89 47 51 77 65 137 68 71 3 94 -7
94 -39 0 -15 -7 -36 -15 -46 -24 -32 -18 -74 14 -107 67 -66 195 -18 208 78 5
39 3 44 -47 97 -74 79 -179 112 -316 100 l-79 -6 -73 -75 c-68 -71 -74 -75
-98 -64 -34 15 -34 15 -34 -18 0 -46 -17 -81 -39 -81 -38 0 -35 -13 21 -93 11
-16 9 -21 -11 -38 l-24 -20 20 -27 c13 -18 31 -28 54 -30 46 -5 55 -16 36 -46
-16 -24 -16 -26 17 -51 22 -16 36 -37 38 -53 3 -25 8 -28 61 -36 58 -8 71 -22
42 -46 -25 -21 -7 -30 61 -30 63 0 64 -1 58 -24 -6 -23 -5 -23 48 -14 54 9
212 83 301 140 73 47 113 85 184 176 82 104 99 106 95 9 -1 -45 -10 -83 -23
-110 -24 -47 -106 -137 -126 -137 -7 0 -13 -7 -13 -15 0 -8 -7 -15 -15 -15 -8
0 -24 -9 -36 -21 -16 -16 -20 -29 -15 -51 7 -34 -8 -68 -29 -68 -7 0 -17 -10
-20 -22 -4 -13 -18 -40 -32 -60 -21 -31 -24 -45 -19 -85 9 -76 8 -81 -13 -112
-12 -16 -24 -43 -27 -60 l-6 -31 47 0 47 0 -5 -58 c-2 -31 -10 -76 -17 -100
-7 -23 -10 -45 -7 -49 12 -11 56 8 89 37 42 38 54 38 75 -4 82 -157 131 -221
168 -221 37 0 86 64 168 221 21 42 33 42 75 4 33 -30 77 -48 89 -36 4 4 1 26
-6 49 -7 23 -16 68 -18 100 l-5 57 47 0 48 0 -7 31 c-3 17 -15 44 -27 60 -21
31 -22 36 -13 112 5 40 2 54 -19 85 -14 20 -28 47 -32 60 -3 12 -13 22 -20 22
-19 0 -38 36 -30 59 6 21 -13 71 -28 71 -22 0 -144 127 -170 178 -28 54 -40
143 -23 171 11 17 60 -13 75 -45 7 -15 41 -54 77 -87 35 -32 64 -64 64 -71 0
-27 279 -170 358 -184 47 -8 52 -8 47 7 -13 33 -9 35 63 32 61 -2 72 0 72 13
0 9 -7 19 -15 22 -8 4 -15 14 -15 25 0 15 9 18 58 21 54 3 57 5 60 30 2 16 17
37 38 53 34 26 34 28 18 46 -21 24 -11 49 20 49 38 0 56 10 72 41 13 26 13 30
0 35 -26 10 -27 36 -2 63 13 14 27 36 30 48 6 18 3 22 -21 25 -25 3 -29 8 -37
56 -9 50 -18 63 -31 42 -14 -22 -40 -7 -108 64 l-72 74 -87 6 c-55 5 -95 3
-107 -4 -11 -5 -31 -10 -46 -10 -40 0 -96 -33 -148 -89 -61 -66 -63 -95 -6
-156 40 -43 44 -45 98 -45 73 0 92 14 101 76 8 45 6 51 -16 67 -31 24 -31 52
0 73 50 32 188 -21 229 -88 8 -13 18 -43 21 -67 6 -38 3 -49 -29 -97 -51 -76
-159 -140 -247 -145 -48 -3 -171 37 -271 89 -99 51 -149 113 -176 219 -11 45
-21 98 -21 117 0 19 -5 47 -11 63 -16 42 -13 101 8 131 17 25 35 59 100 187
14 28 34 73 44 100 9 28 29 82 44 120 14 39 30 97 36 130 14 90 28 332 22 396
-7 68 -6 68 128 63 116 -5 178 -17 295 -55 95 -31 117 -49 154 -123 8 -16 20
-31 26 -33 6 -2 34 24 62 58 50 59 52 63 52 121 0 53 -4 65 -31 95 -61 70 -32
80 253 87 l158 4 32 -37 c18 -20 42 -55 52 -78 10 -24 22 -43 26 -43 5 0 22
13 39 29 21 20 32 39 33 63 3 68 -4 104 -29 142 -18 27 -22 41 -13 46 6 4 61
10 121 13 78 5 124 13 156 27 36 16 67 20 143 20 135 0 157 -6 206 -57 23 -23
45 -43 47 -43 14 0 47 72 47 102 0 29 -9 44 -50 84 -60 59 -76 108 -39 119 13
4 34 16 47 26 24 19 122 52 184 63 21 4 74 7 117 7 85 0 163 -24 197 -62 28
-31 34 -23 34 41 0 55 -3 63 -36 100 -20 22 -42 40 -48 40 -21 0 -59 48 -52
65 3 9 27 26 53 38 27 13 66 34 88 49 22 14 74 36 115 48 41 12 95 28 120 36
84 26 151 12 215 -47 23 -21 45 -39 49 -39 3 0 6 16 6 35 0 29 -9 46 -45 84
-49 53 -91 77 -147 86 -22 3 -44 15 -52 27 -16 22 -11 22 -146 -1 -25 -5 -58
-14 -75 -21 -41 -18 -165 -30 -185 -18 -12 8 -30 0 -75 -30 -78 -52 -114 -86
-95 -89 94 -10 160 -27 185 -47 27 -22 28 -25 16 -54 -15 -36 -23 -40 -71 -36
-19 1 -93 6 -165 10 -76 4 -133 11 -137 18 -5 8 -13 8 -28 -1 -11 -7 -30 -13
-43 -13 -12 0 -38 -13 -57 -28 -19 -16 -58 -41 -87 -57 -63 -33 -75 -55 -32
-55 32 0 109 -45 109 -64 0 -20 -75 -86 -97 -86 -12 0 -34 5 -50 11 -29 12
-207 31 -276 30 -22 0 -69 -15 -110 -35 -40 -19 -81 -37 -92 -41 -20 -7 -20
-7 1 -15 31 -12 74 -68 74 -97 0 -15 -12 -37 -32 -55 -35 -33 -49 -33 -208 -7
-81 14 -96 21 -93 48 3 27 -1 27 -89 -8 -40 -16 -98 -33 -128 -36 -30 -4 -62
-9 -70 -13 -8 -3 -40 -12 -70 -18 l-55 -13 51 5 c58 5 114 -17 114 -45 0 -21
-67 -86 -97 -95 -12 -4 -41 -2 -63 4 -53 14 -142 69 -137 84 2 6 32 18 68 28
83 21 61 22 -76 2 -142 -20 -253 -43 -285 -60 -14 -7 -59 -16 -101 -19 -68 -6
-79 -10 -115 -41 -25 -23 -45 -33 -56 -30 -10 4 -28 9 -39 13 l-22 6 22 -29
c12 -16 25 -55 31 -86 15 -94 -15 -160 -91 -198 -48 -25 -60 -25 -108 0 -76
38 -106 104 -91 198 6 31 19 70 31 86 l22 29 -22 -6 c-11 -4 -29 -9 -39 -13
-11 -3 -31 7 -56 30 -36 31 -47 35 -115 41 -42 3 -87 12 -101 19 -32 17 -143
40 -285 60 -137 20 -159 19 -76 -2 36 -10 66 -22 68 -28 5 -15 -84 -70 -137
-84 -22 -6 -51 -8 -63 -4 -30 9 -97 74 -97 95 0 28 56 50 114 45 l51 -5 -55
13 c-30 6 -62 15 -70 18 -8 4 -40 9 -70 13 -30 3 -88 20 -128 36 -88 35 -92
35 -89 8 3 -27 -12 -34 -93 -48 -159 -26 -173 -26 -208 7 -20 18 -32 40 -32
55 0 29 43 85 74 97 21 8 21 8 1 15 -11 4 -52 22 -92 41 -41 20 -88 35 -110
35 -69 1 -247 -18 -276 -30 -48 -19 -71 -13 -110 27 -20 21 -37 43 -37 49 0
18 78 63 109 63 43 0 31 22 -32 55 -29 16 -68 41 -87 57 -19 15 -45 28 -57 28
-13 0 -32 6 -43 13 -15 9 -23 9 -28 1 -4 -7 -61 -14 -137 -18 -71 -4 -146 -9
-165 -10 -48 -4 -56 0 -71 36 -12 29 -11 32 16 54 25 20 91 37 185 47 19 3
-17 37 -95 89 -45 30 -63 38 -75 30 -20 -12 -144 0 -185 18 -30 13 -94 26
-170 35 -33 3 -44 0 -62 -20z m2759 -932 c82 -31 100 -72 53 -118 -32 -33
-105 -35 -135 -5 -26 26 -26 80 1 114 24 31 26 31 81 9z m647 -9 c27 -34 27
-88 1 -114 -30 -30 -103 -28 -135 5 -29 28 -32 66 -9 86 18 15 92 48 111 48 6
1 21 -11 32 -25z m-435 -2109 c20 -25 49 -53 62 -62 24 -15 26 -15 60 18 20
19 42 46 50 62 17 31 47 35 82 11 27 -19 29 -58 4 -99 -10 -16 -22 -42 -25
-57 -4 -16 -12 -28 -18 -28 -7 0 -29 -16 -50 -35 -35 -31 -45 -35 -94 -35 -50
0 -57 3 -86 35 -18 19 -38 35 -46 35 -7 0 -18 12 -25 28 -6 15 -17 41 -24 59
-20 46 -17 80 8 97 37 26 61 19 102 -29z"/>
</g>
</svg>
