<?xml version="1.0" encoding="utf-8"?>
<!-- Generator: Adobe Illustrator 24.3.0, SVG Export Plug-In . SVG Version: 6.00 Build 0)  -->
<svg version="1.1" id="Layer_1" xmlns="http://www.w3.org/2000/svg" xmlns:xlink="http://www.w3.org/1999/xlink" x="0px" y="0px"
	 viewBox="0 0 228 228" style="enable-background:new 0 0 228 228;" xml:space="preserve">
<g id="_x23_1e2021ff">
</g>
<g id="_x23_f2f2f2ff">
	<path d="M98.2,36.9c14.9-3.6,30.7-2.3,45,3.2c25,9.9,43.8,34.1,46.5,60.9c1.6,9.6,0.4,19.8-4.6,28.3c-6.6,11-19,18.6-32,18.4
		c-13.3,0-26.7,0.1-40-0.1C93.9,146.6,77.8,129,78.1,110C77.7,90.3,95.2,72.1,115,72.4c18.9-0.7,36.1,15.3,37.7,33.9
		c1.1,7.8-1.5,15.5-4.8,22.4c6.5,0.6,13.7-0.5,18.3-5.6c5.6-5.1,6.1-13.2,5.1-20.2c-2-15.7-10.8-30.4-23.8-39.3
		c-12.3-8.8-28.4-12-43.2-8.8c-15.9,3-29.9,13.6-37.7,27.7c-7.5,13-9.1,29.1-4.9,43.5c3.6,11.9,11.1,22.7,21.4,29.9
		c9.7,7.2,22,10.6,34,10.5c24.4,0,48.7,0.1,73.1-0.1c0.4,6.3,0.1,12.6,0.1,18.8c-24.8,0.1-49.5,0-74.3,0
		c-15.2-0.1-30.5-4.4-42.9-13.3c-15.4-10.7-26.8-27.2-30.6-45.7c-4.4-19.9-0.5-41.7,11.2-58.5C64,52.4,80.1,40.9,98.2,36.9
		 M111.4,91.6c-9.7,2.1-16.5,12.7-14.1,22.4c1.6,8.2,9.3,14.8,17.7,14.8c7.9,0.4,15.6-5.1,18.1-12.6c2.9-7.9-0.3-17.4-7.4-21.9
		C121.6,91.4,116.3,90.6,111.4,91.6z"/>
</g>
</svg>
