<?xml version="1.0" encoding="UTF-8" ?>
<!DOCTYPE svg PUBLIC "-//W3C//DTD SVG 1.1//EN" "http://www.w3.org/Graphics/SVG/1.1/DTD/svg11.dtd">
<svg width="194pt" height="194pt" viewBox="0 0 194 194" version="1.1" xmlns="http://www.w3.org/2000/svg">
<g id="#1e2021ff">
</g>
<g id="#f2f2f2ff">
<path fill="#f2f2f2" opacity="1.00" d=" M 59.55 39.00 C 60.47 33.97 68.15 32.93 70.33 37.54 C 71.43 41.35 71.44 45.65 74.11 48.85 C 75.06 49.87 76.05 51.94 77.75 51.26 C 89.57 47.68 102.41 47.45 114.26 51.03 C 116.84 52.45 118.46 49.40 119.68 47.63 C 121.85 44.48 121.44 40.40 123.03 37.04 C 125.69 33.09 132.42 34.31 133.42 39.01 C 134.17 45.37 131.08 51.26 128.13 56.66 C 137.52 62.08 145.38 69.83 151.41 78.80 C 155.14 78.02 158.58 75.54 159.99 71.92 C 161.09 69.56 161.57 66.30 164.42 65.40 C 168.12 63.77 172.77 66.87 172.36 70.97 C 171.30 79.48 164.87 86.32 157.07 89.39 C 159.28 97.74 162.05 106.21 161.27 114.97 C 160.54 119.06 154.86 121.18 151.84 118.15 C 149.96 116.71 149.77 114.16 149.67 111.98 C 149.30 96.91 142.05 82.16 130.47 72.52 C 120.82 64.67 108.50 59.84 95.97 60.22 C 84.52 60.08 73.30 64.38 64.20 71.20 C 52.40 80.17 44.70 94.33 43.48 109.09 C 43.14 112.13 43.81 115.94 41.16 118.15 C 38.15 121.17 32.44 119.08 31.74 114.97 C 30.95 106.21 33.68 97.74 35.91 89.40 C 28.12 86.34 21.68 79.49 20.62 71.00 C 20.25 66.93 24.89 63.82 28.57 65.44 C 31.66 66.47 31.99 70.12 33.33 72.62 C 34.78 75.84 38.00 77.64 41.13 78.89 C 43.54 76.34 45.40 73.34 47.73 70.72 C 52.55 65.07 58.45 60.42 64.83 56.63 C 61.94 51.21 58.81 45.36 59.55 39.00 Z" />
<path fill="#f2f2f2" opacity="1.00" d=" M 88.39 72.68 C 93.48 72.02 98.67 72.09 103.77 72.56 C 118.45 75.07 131.08 86.23 135.84 100.27 C 138.32 106.80 137.97 113.94 137.47 120.78 C 135.07 135.13 124.58 148.01 110.77 152.84 C 100.89 156.52 89.64 156.15 79.98 151.95 C 69.22 147.49 60.90 138.00 57.08 127.09 C 54.70 120.71 55.07 113.77 55.45 107.09 C 57.89 90.29 71.72 75.90 88.39 72.68 M 89.42 84.62 C 74.23 87.82 63.78 104.42 67.24 119.50 C 69.73 134.69 85.61 145.96 100.78 143.42 C 109.08 142.22 116.56 137.20 121.32 130.38 C 127.41 121.26 128.02 108.88 122.70 99.28 C 116.58 87.64 102.15 81.21 89.42 84.62 Z" />
</g>
</svg>
