<?xml version="1.0" encoding="utf-8"?>
<!-- Generator: Adobe Illustrator 24.3.0, SVG Export Plug-In . SVG Version: 6.00 Build 0)  -->
<svg version="1.1" id="Layer_1" xmlns="http://www.w3.org/2000/svg" xmlns:xlink="http://www.w3.org/1999/xlink" x="0px" y="0px"
	 viewBox="0 0 199 199" style="enable-background:new 0 0 199 199;" xml:space="preserve">
<g id="_x23_1e2021ff">
</g>
<g id="_x23_f2f2f2ff">
	<path d="M72.7,36.6c10.4-6.6,23.2-9.4,35.4-7.7c14.8,2,28.9,10.3,37.1,22.9c10.3,14.7,12.1,34.8,4.8,51.1
		c-2.8,6.5-7.3,11.9-11.5,17.5c-12.5,16.2-25.1,32.4-37.5,48.7c-13.9-18.4-28.2-36.6-42.2-55c-8.6-11-12.7-25.4-10.8-39.3
		C50,59.4,59.2,44.7,72.7,36.6 M94.5,54.9c-4.9,1.3-9.5,3.8-13,7.6c-7.7,8.3-9.1,21.6-3.3,31.3c4.9,8.5,15,13.6,24.8,12.8
		c6.3-0.4,12.3-3.4,16.8-7.7c6.2-6.3,8.9-15.8,6.8-24.4c-1.6-7.4-6.6-14.2-13.5-17.5C107.5,53.9,100.7,53.7,94.5,54.9z"/>
</g>
</svg>
